<?xml version="1.0" standalone="no"?>
<!DOCTYPE svg PUBLIC "-//W3C//DTD SVG 20010904//EN"
 "http://www.w3.org/TR/2001/REC-SVG-20010904/DTD/svg10.dtd">
<svg version="1.0" xmlns="http://www.w3.org/2000/svg"
 width="500.000000pt" height="500.000000pt" viewBox="0 0 500.000000 500.000000"
 preserveAspectRatio="xMidYMid meet">
<metadata>
Created by potrace 1.14, written by Peter Selinger 2001-2017
</metadata>
<g transform="translate(0.000000,500.000000) scale(0.100000,-0.100000)"
fill="#000000" stroke="none">
<path d="M0 2500 l0 -2500 2500 0 2500 0 0 2500 0 2500 -2500 0 -2500 0 0
-2500z m2672 1992 c-11 -7 -10 -11 4 -16 13 -5 14 -10 6 -18 -12 -12 -46 -3
-38 11 10 16 -25 21 -40 6 -18 -18 -28 -20 -18 -3 5 8 2 9 -9 5 -16 -6 -23 3
-12 15 3 2 31 5 62 6 36 2 53 -1 45 -6z m185 -8 c55 -3 69 -12 46 -30 -17 -14
-17 -15 5 -9 15 4 22 2 22 -8 0 -10 -12 -13 -52 -9 -29 2 -64 -1 -78 -7 l-25
-11 25 4 c14 2 34 0 45 -4 19 -8 19 -9 1 -9 -18 -1 -18 -2 -2 -20 16 -17 16
-19 -6 -25 -37 -10 -42 -7 -24 13 16 18 16 19 -11 29 -21 7 -31 6 -41 -4 -16
-17 -45 -18 -39 -1 2 6 10 11 16 10 6 -2 11 2 11 7 0 6 3 9 8 8 4 -1 17 4 28
11 22 15 22 47 0 64 -6 5 -2 5 9 1 11 -4 39 -9 62 -10z m-502 -24 c-3 -5 -14
-10 -23 -9 -14 0 -13 2 3 9 27 11 27 11 20 0z m95 0 c-20 -13 -33 -13 -25 0 3
6 14 10 23 10 15 0 15 -2 2 -10z m78 3 c-10 -2 -26 -2 -35 0 -10 3 -2 5 17 5
19 0 27 -2 18 -5z m522 -41 c0 -8 6 -12 15 -9 8 4 17 1 21 -5 4 -6 3 -8 -4 -4
-6 3 -13 2 -17 -4 -3 -6 4 -15 17 -20 22 -10 22 -10 -4 -7 -16 2 -33 -2 -39
-9 -8 -10 -3 -17 21 -29 17 -9 28 -20 24 -26 -4 -6 -14 -4 -29 5 -14 9 -26 12
-30 6 -3 -5 -13 -6 -23 -3 -13 4 -13 2 3 -10 23 -19 39 -22 29 -5 -4 7 -3 8 5
4 6 -4 9 -11 6 -16 -3 -5 4 -8 16 -7 11 1 33 17 49 37 38 48 38 48 13 65 -13
9 -23 23 -23 31 0 8 -5 14 -12 14 -6 0 -9 3 -5 6 3 3 15 -1 27 -9 15 -11 18
-16 8 -20 -7 -3 -4 -6 8 -6 30 -1 36 -42 13 -78 -11 -15 -19 -24 -19 -20 0 5
-14 -3 -31 -17 -28 -24 -32 -25 -58 -11 -16 8 -32 11 -36 7 -5 -4 -5 -1 -1 6
5 8 0 12 -13 12 -25 0 -28 29 -3 31 9 1 22 0 27 -1 6 -1 7 1 3 5 -4 4 2 23 12
43 l20 36 -28 30 -27 29 33 -19 c17 -10 32 -25 32 -32z m-827 9 c29 -15 34
-26 15 -37 -6 -4 -8 -3 -5 2 8 14 -23 31 -50 29 -18 -1 -20 1 -11 12 6 8 14
12 17 11 3 -2 18 -10 34 -17z m197 3 c0 -2 -7 -4 -15 -4 -8 0 -15 4 -15 10 0
5 7 7 15 4 8 -4 15 -8 15 -10z m207 2 c4 -5 1 -7 -7 -4 -8 3 -23 1 -32 -4 -13
-6 -18 -5 -18 5 0 14 43 17 57 3z m-532 -16 c3 -5 13 -7 23 -4 16 5 16 5 0 -5
-17 -12 -48 -5 -48 10 0 12 17 12 25 -1z m422 4 c-3 -3 -12 -4 -19 -1 -8 3 -5
6 6 6 11 1 17 -2 13 -5z m-140 -38 c44 -7 88 -11 97 -10 12 2 13 -1 3 -18 -9
-16 -9 -22 1 -25 19 -7 14 -23 -8 -23 -16 0 -20 6 -18 26 2 15 -2 29 -8 31
-16 5 -27 -29 -13 -37 8 -6 8 -9 0 -14 -17 -11 -32 4 -26 24 8 26 -12 35 -24
11 -8 -14 -8 -21 2 -24 7 -3 5 -6 -5 -6 -20 -1 -32 15 -18 24 5 3 10 13 10 21
0 21 -34 17 -55 -6 -19 -21 -8 -29 12 -9 9 9 11 7 9 -7 -2 -11 -8 -19 -14 -18
-7 1 -22 2 -34 3 l-23 1 23 18 23 18 -21 19 c-17 15 -21 16 -19 5 4 -27 -13
-50 -37 -50 -13 0 -24 4 -24 10 0 5 10 9 22 7 12 -1 23 4 24 11 1 6 2 19 3 28
1 11 6 14 19 9 9 -4 54 -12 99 -19z m538 15 c6 -11 -33 -26 -42 -17 -4 3 2 6
13 6 16 0 17 2 4 10 -13 8 -13 10 2 10 9 0 19 -4 23 -9z m-761 -33 c-3 -4 -14
-3 -25 2 -11 6 -17 15 -14 20 4 6 14 5 25 -2 10 -7 16 -16 14 -20z m531 8
c-10 -7 -28 -11 -39 -8 -17 4 -19 2 -8 -9 6 -7 12 -19 12 -26 0 -22 -31 -15
-57 13 -25 28 -38 28 -27 0 3 -9 13 -16 22 -16 11 0 13 -3 6 -10 -15 -15 -42
-2 -47 23 -4 18 -5 17 -6 -5 -1 -20 -6 -26 -21 -25 -17 1 -20 7 -18 32 3 28 6
30 43 32 65 2 136 11 142 17 4 3 9 4 11 1 3 -3 -3 -11 -13 -19z m-700 -8 c6
-5 21 -17 34 -28 13 -11 32 -20 42 -20 9 0 19 -4 21 -10 2 -5 18 -10 36 -12
18 -1 37 -7 42 -13 5 -6 28 -10 50 -8 38 3 53 -8 30 -22 -5 -3 -10 -1 -10 5 0
6 -14 1 -31 -11 -23 -16 -27 -24 -18 -30 8 -5 21 -1 34 9 20 17 20 17 1 -5
-19 -23 -46 -31 -46 -13 0 5 -7 7 -15 4 -8 -4 -22 -3 -31 0 -15 6 -14 10 7 32
19 21 21 27 9 34 -9 6 -17 5 -22 -3 -6 -9 -8 -9 -8 1 0 8 -6 12 -12 10 -7 -3
-13 -10 -13 -16 0 -5 -3 -14 -7 -18 -4 -4 -3 -13 3 -21 9 -10 8 -13 -5 -13
-18 0 -22 25 -6 35 8 5 7 11 -1 21 -6 7 -16 11 -22 7 -6 -3 -7 -1 -3 6 4 6 13
8 19 5 9 -5 9 -4 0 6 -9 10 -18 8 -42 -9 -32 -23 -41 -37 -18 -28 8 3 14 0 14
-7 0 -15 -44 -9 -54 8 -3 6 -3 8 1 5 4 -4 20 5 36 19 26 23 27 27 12 38 -13
10 -22 9 -44 -2 -38 -19 -50 -17 -13 3 29 16 29 16 7 24 -12 5 -30 6 -40 2
-10 -4 -8 2 8 14 24 20 31 20 55 1z m1264 8 c18 -10 20 -14 9 -19 -8 -3 -22 3
-31 14 -19 22 -12 24 22 5z m-1055 -11 c-7 -16 -24 -21 -24 -6 0 8 7 13 27 20
1 1 0 -6 -3 -14z m536 -10 c8 -5 24 -9 35 -7 16 1 15 0 -4 -8 -18 -8 -27 -7
-33 2 -5 9 -8 9 -8 1 0 -13 -25 -12 -37 2 -4 4 -2 5 6 0 10 -5 12 -4 7 4 -10
16 -26 4 -19 -14 3 -8 1 -15 -5 -15 -5 0 -12 9 -15 20 -3 11 -1 18 3 15 5 -3
11 -1 15 5 7 11 33 9 55 -5z m-850 -27 c0 -5 -5 -8 -11 -8 -5 0 -7 5 -4 10 3
6 1 10 -5 10 -6 0 -8 5 -4 11 6 11 23 -6 24 -23z m1428 5 c12 -3 25 -10 28
-15 4 -6 -2 -7 -17 -2 -21 6 -39 10 -72 13 -5 1 -5 6 -2 12 4 6 14 7 24 3 9
-3 26 -9 39 -11z m-1388 -44 c0 -5 -5 -9 -11 -9 -5 0 -7 5 -4 10 3 6 -1 10
-10 10 -9 0 -13 5 -10 10 7 12 35 -5 35 -21z m1027 10 c-3 -12 -3 -18 0 -15 3
3 17 -1 32 -8 14 -7 31 -11 38 -9 6 2 14 0 17 -5 3 -6 -3 -12 -14 -15 -11 -3
-23 -1 -26 4 -3 5 -10 9 -15 9 -6 0 -8 -4 -4 -9 3 -5 1 -12 -5 -16 -25 -15
-50 -12 -71 11 -12 13 -27 24 -32 24 -6 0 -1 -10 11 -23 12 -13 22 -27 22 -30
0 -15 -47 -1 -75 21 -31 25 -59 15 -36 -12 20 -23 5 -34 -44 -33 -34 0 -49 5
-56 19 -5 10 -7 23 -4 28 3 6 -1 7 -10 4 -10 -4 -14 -13 -10 -23 12 -31 10
-36 -20 -36 -33 0 -47 28 -25 49 10 8 11 4 7 -19 -4 -16 -4 -25 -1 -18 3 7 12
9 21 6 11 -5 14 -1 9 13 -8 28 8 47 43 50 16 1 34 5 40 8 5 4 12 2 16 -4 4 -7
12 -7 25 0 13 7 21 6 30 -5 7 -8 16 -13 20 -10 4 3 13 -2 20 -10 7 -8 17 -15
23 -15 5 0 2 9 -8 20 -10 11 -25 19 -33 18 -8 -2 -17 3 -20 11 -3 9 1 11 16 7
11 -4 23 -2 27 4 7 12 36 14 33 2 -5 -14 40 -63 47 -52 4 6 13 9 19 7 7 -3 13
1 13 8 0 8 -10 12 -23 10 -14 -1 -21 2 -17 8 3 6 1 7 -5 3 -19 -12 -25 15 -6
29 27 20 37 18 31 -6z m342 -9 c-5 -3 5 -14 21 -23 25 -15 29 -16 24 -2 -3 8
-10 15 -15 15 -5 0 -9 4 -9 8 0 5 10 8 23 7 19 -1 22 -7 22 -41 0 -28 -5 -39
-15 -39 -8 0 -15 6 -15 14 0 8 -16 23 -35 34 l-35 19 25 -21 c14 -11 29 -21
34 -21 6 0 2 -6 -9 -13 -12 -10 -14 -16 -7 -21 7 -4 12 -2 12 5 0 8 4 8 15 -1
28 -23 -6 -31 -41 -10 -17 11 -34 17 -37 13 -4 -3 -13 0 -22 7 -8 7 -15 8 -15
3 0 -13 58 -45 69 -38 5 3 13 0 17 -6 9 -16 -17 -30 -33 -18 -7 6 -18 7 -24 3
-7 -4 -9 -3 -6 3 9 15 -12 29 -47 31 l-29 2 28 -22 c15 -12 35 -22 44 -23 9 0
17 -5 19 -10 4 -15 -37 -14 -49 1 -6 8 -16 14 -22 14 -5 0 -3 -8 6 -18 22 -25
21 -29 -8 -34 -17 -4 -31 2 -46 18 -13 13 -27 24 -32 24 -6 0 0 -11 13 -25 26
-27 24 -33 -9 -40 -16 -3 -30 4 -46 23 -29 34 -21 51 11 21 13 -12 20 -27 17
-33 -4 -6 1 -5 10 3 17 13 16 15 -4 37 -29 31 -68 29 -64 -3 1 -12 8 -30 15
-38 15 -18 9 -27 -22 -29 -25 -2 -48 11 -48 26 0 7 5 7 13 1 10 -8 22 -9 42
-4 11 2 -28 51 -41 51 -12 0 -11 -6 3 -27 17 -26 17 -27 0 -14 -9 7 -17 10
-17 5 0 -4 -5 -3 -12 4 -21 21 -31 13 -14 -13 9 -13 16 -29 16 -35 0 -15 -31
-12 -51 6 -16 15 -17 14 -12 -5 5 -19 1 -21 -34 -19 -34 1 -41 5 -51 30 -6 17
-16 27 -21 24 -7 -5 -7 -15 -1 -32 13 -34 13 -34 -15 -34 -15 0 -28 7 -32 17
-5 14 -8 13 -14 -5 -12 -31 -45 -28 -58 6 l-11 27 6 -30 c3 -20 2 -27 -4 -20
-6 6 -12 19 -14 29 -1 11 -9 21 -16 24 -10 3 -13 -4 -10 -24 3 -25 -1 -29 -24
-32 -23 -3 -28 1 -29 20 -1 23 -1 23 -9 -2 -5 -18 -9 -21 -13 -10 -13 36 -16
69 -7 75 5 3 11 -2 11 -12 1 -15 2 -16 6 -1 6 24 35 32 49 13 8 -10 14 -12 19
-6 10 16 23 13 28 -6 4 -14 5 -12 6 5 1 27 35 30 50 5 9 -16 10 -16 11 -2 0
22 39 32 47 13 4 -12 8 -12 19 3 7 10 14 14 14 10 0 -4 9 -3 21 3 15 9 24 8
35 -1 10 -8 14 -8 14 0 0 15 33 14 48 -1 9 -9 12 -8 12 6 0 15 3 16 15 6 13
-11 14 -10 9 4 -4 12 -1 16 14 16 12 0 24 -5 27 -11 5 -6 13 -2 22 11 10 14
22 20 34 17 11 -3 26 2 34 10 9 8 22 12 31 9 8 -3 17 1 21 10 3 8 15 14 27 12
13 -2 20 2 19 10 -2 6 3 12 11 12 7 0 22 12 32 26 36 49 44 55 58 41 8 -6 10
-14 5 -17z m-1525 -6 c9 -23 -3 -32 -17 -13 -7 9 -19 14 -27 12 -13 -4 -13 -3
0 6 22 15 37 13 44 -5z m186 -4 c0 -5 -4 -10 -10 -10 -5 0 -10 5 -10 10 0 6 5
10 10 10 6 0 10 -4 10 -10z m1490 -20 c0 -15 -5 -12 -26 11 -19 22 -19 22 4
10 12 -6 22 -16 22 -21z m-1387 -10 c-5 -19 -23 -29 -23 -12 0 7 20 32 26 32
1 0 0 -9 -3 -20z m257 10 c0 -6 9 -6 23 -1 14 5 30 5 40 0 9 -6 17 -6 17 -2 0
14 20 -21 20 -36 0 -11 -4 -10 -19 3 -18 16 -19 16 -29 -13 -11 -31 -26 -38
-51 -22 -10 6 -10 13 -2 29 8 15 7 23 -3 31 -15 13 -49 4 -40 -10 3 -5 -2 -12
-11 -15 -13 -5 -14 -9 -4 -15 7 -4 19 -3 26 3 10 8 12 7 7 -6 -7 -18 -44 -22
-44 -5 0 5 -5 7 -10 4 -6 -3 -1 9 10 27 13 22 28 34 45 36 14 1 25 -3 25 -8z
m-640 -20 c-8 -14 -8 -20 0 -20 6 0 8 -5 4 -11 -5 -8 -10 -6 -16 5 -6 11 -6
22 2 32 18 20 23 17 10 -6z m768 -17 c-3 -35 -6 -38 -34 -39 -27 -1 -31 2 -26
20 3 11 7 15 10 8 2 -6 12 -12 23 -12 14 0 19 7 19 26 0 14 -4 23 -10 19 -5
-3 -10 -1 -10 4 0 6 7 11 16 11 12 0 14 -9 12 -37z m72 27 c0 -5 -7 -10 -15
-10 -8 0 -15 5 -15 10 0 6 7 10 15 10 8 0 15 -4 15 -10z m70 -2 c0 -9 3 -9 12
0 7 7 23 11 38 11 19 -1 21 -2 6 -6 -28 -7 -46 -28 -46 -52 0 -17 -6 -21 -30
-21 -23 0 -30 5 -30 19 0 11 -3 26 -6 34 -3 10 2 17 13 20 32 8 43 7 43 -5z
m884 -12 c-3 -7 8 -21 23 -31 15 -10 28 -17 29 -14 0 2 9 -2 18 -10 9 -8 15
-20 12 -27 -3 -7 -1 -16 4 -19 6 -4 6 -14 -1 -27 -7 -14 -14 -17 -21 -10 -6 6
-17 8 -26 5 -10 -4 -13 -2 -8 5 7 12 -10 25 -39 29 -15 2 -12 -4 15 -26 21
-18 37 -25 41 -19 9 14 22 -9 15 -27 -2 -7 -15 -19 -27 -25 -17 -10 -20 -9
-14 1 5 7 4 10 -2 6 -6 -4 -18 2 -28 13 -25 28 -42 25 -19 -2 12 -15 8 -13
-12 5 -17 15 -33 24 -37 21 -9 -9 12 -46 23 -39 5 3 12 1 15 -5 4 -6 15 -8 26
-5 13 4 19 2 19 -8 0 -26 -37 -26 -61 -1 -12 13 -27 24 -33 24 -5 0 3 -14 19
-30 25 -26 27 -32 15 -40 -8 -5 -19 -8 -25 -7 -5 2 -16 -3 -23 -10 -11 -11
-17 -11 -29 -1 -13 11 -13 13 0 18 13 4 11 10 -8 33 -13 15 -29 27 -36 27 -8
0 -6 -7 5 -19 10 -11 18 -25 20 -33 1 -7 5 -19 9 -26 9 -13 -3 -20 -42 -24
-14 -2 -26 3 -29 12 -5 13 -3 13 13 0 11 -9 16 -10 11 -2 -4 7 -1 12 8 12 23
0 20 13 -8 40 -14 12 -32 20 -40 17 -9 -4 -18 -2 -21 4 -4 5 2 12 12 15 10 3
28 10 40 16 11 6 27 7 34 3 8 -5 10 -4 5 3 -4 7 -2 12 3 12 20 0 26 -4 23 -15
-1 -6 11 -24 28 -40 36 -34 41 -22 5 15 -21 22 -23 28 -12 50 7 14 20 25 30
25 9 0 16 3 14 6 -3 10 34 49 42 45 4 -3 6 16 6 40 0 24 4 44 8 44 5 0 5 5 1
12 -4 7 -3 8 4 4 6 -4 9 -13 6 -20z m-1656 -1 c12 -4 22 -12 22 -17 0 -14 -52
-54 -65 -50 -5 2 -5 -2 2 -9 9 -9 18 -6 42 10 17 13 31 29 31 37 0 8 5 14 10
14 6 0 10 -4 10 -10 0 -5 9 -10 21 -10 11 0 17 -4 14 -10 -4 -6 9 -10 30 -10
27 0 36 -4 32 -13 -4 -11 4 -13 34 -10 21 2 39 0 39 -5 0 -5 11 -7 25 -4 33 6
31 -5 -8 -52 -29 -34 -36 -37 -54 -27 -12 6 -28 8 -36 5 -8 -3 -18 0 -22 5 -3
6 -11 9 -16 6 -16 -11 -9 11 9 28 10 10 22 14 26 10 4 -4 4 0 0 10 -5 15 -10
14 -41 -13 -28 -25 -37 -28 -54 -19 -21 11 -21 11 7 41 29 29 29 30 9 44 -18
14 -22 13 -43 -12 -13 -14 -21 -33 -18 -40 3 -8 -1 -14 -9 -14 -8 0 -15 5 -15
11 0 6 -7 8 -15 5 -9 -3 -18 1 -21 9 -4 8 -10 13 -14 10 -4 -3 -14 3 -21 13
-7 9 -9 14 -4 9 4 -4 18 1 29 10 20 17 20 17 6 0 -12 -17 -12 -18 6 -15 22 4
55 39 47 51 -3 5 -10 2 -16 -5 -7 -7 -11 -11 -9 -9 1 2 -5 12 -13 21 -14 15
-13 16 2 14 10 -1 28 -5 41 -9z m670 -19 c2 -19 8 -26 18 -22 8 3 14 1 14 -4
0 -6 -13 -9 -28 -8 -25 2 -28 6 -28 35 0 40 20 39 24 -1z m342 9 c13 -14 21
-25 18 -25 -2 0 -15 11 -28 25 -13 14 -21 25 -18 25 2 0 15 -11 28 -25z
m-1123 -30 c0 -8 -4 -12 -9 -9 -5 3 -6 10 -3 15 9 13 12 11 12 -6z m1578 -3
c-3 -3 -11 0 -18 7 -9 10 -8 11 6 5 10 -3 15 -9 12 -12z m-1730 -44 c-5 -24
-14 -36 -16 -20 -1 7 -2 18 -3 25 -3 17 4 28 14 22 5 -3 7 -15 5 -27z m335 29
c0 -2 -10 -12 -22 -23 l-23 -19 19 23 c18 21 26 27 26 19z m-294 -41 c8 -8 14
-21 14 -29 0 -16 -24 -40 -32 -32 -9 9 -30 -24 -23 -35 5 -8 16 -4 34 12 24
21 24 20 -3 -9 -16 -17 -34 -29 -42 -26 -8 3 -11 9 -8 14 3 5 -2 9 -10 9 -9 0
-16 5 -16 11 0 6 6 9 14 6 8 -3 22 3 31 13 10 11 22 18 27 17 18 -4 20 20 3
36 -15 16 -19 27 -9 27 3 0 12 -6 20 -14z m574 -4 c0 -5 11 -7 25 -4 29 5 31
-4 11 -53 -12 -27 -21 -35 -41 -35 -22 0 -25 3 -20 23 5 19 4 20 -5 5 -6 -10
-23 -18 -37 -18 -20 0 -24 4 -19 18 5 14 3 13 -10 -3 -17 -21 -17 -17 6 30 8
17 18 32 22 35 13 10 68 11 68 2z m-665 -27 c-1 -14 3 -25 8 -25 8 0 7 -4 0
-11 -18 -18 -35 -1 -23 22 6 10 8 19 5 19 -4 0 -3 5 0 10 10 16 13 12 10 -15z
m805 1 c0 -7 -5 -27 -11 -45 -8 -23 -17 -31 -35 -31 -14 0 -24 6 -24 14 0 9 8
12 24 9 18 -4 25 0 29 18 3 12 4 26 1 31 -10 16 -22 8 -29 -19 -5 -21 -8 -24
-16 -12 -5 7 -9 9 -9 3 0 -5 -7 -19 -15 -30 -13 -17 -13 -14 0 19 8 20 13 37
10 37 -4 0 -4 4 -1 8 9 15 76 13 76 -2z m95 4 c5 -8 11 -7 20 0 8 7 20 8 27 4
7 -4 27 -7 45 -6 33 3 33 2 33 -43 0 -43 -1 -45 -30 -45 -26 0 -30 4 -31 28
l-2 27 -4 -27 c-3 -22 -10 -28 -29 -28 -20 0 -24 5 -25 33 l-1 32 -7 -30 c-5
-23 -12 -31 -34 -33 -21 -3 -27 1 -27 15 0 15 -2 16 -10 3 -7 -11 -8 -3 -6 25
3 29 8 40 20 39 9 -1 16 2 16 7 0 13 37 11 45 -1z m1298 -71 c18 -19 27 -37
27 -60 l0 -33 -32 30 c-19 16 -25 19 -14 6 16 -18 17 -25 6 -35 -8 -7 -11 -8
-7 -1 4 7 0 17 -8 24 -8 7 -15 9 -15 5 0 -4 -7 -2 -15 5 -27 22 -16 -6 14 -34
24 -23 29 -25 35 -11 3 9 10 13 16 10 7 -4 7 -13 0 -26 -6 -11 -16 -16 -22
-13 -7 4 -8 3 -4 -4 12 -20 -4 -35 -22 -20 -13 11 -14 11 -7 -2 5 -8 -10 1
-33 20 -43 36 -54 66 -27 76 8 4 15 13 15 21 0 9 6 13 13 10 8 -3 14 0 14 6 1
7 2 23 3 37 1 14 0 36 -3 50 -6 24 -5 24 16 -5 12 -16 34 -42 50 -56z m-2060
64 c4 -3 3 -11 -3 -18 -6 -8 1 -11 25 -10 19 0 35 -4 34 -10 0 -5 -8 -9 -17
-7 -10 1 -29 -9 -41 -22 -13 -14 -28 -23 -34 -19 -6 3 -7 1 -3 -5 11 -18 30
-14 54 11 16 17 34 23 67 24 24 1 47 -3 50 -8 4 -5 17 -9 31 -9 32 0 31 -7
-14 -58 -28 -33 -42 -42 -55 -36 -10 3 -16 13 -13 20 4 11 2 11 -15 1 -17 -10
-22 -9 -33 5 -7 10 -17 14 -22 10 -5 -4 4 7 19 24 37 41 19 53 -18 14 -32 -33
-47 -37 -64 -17 -8 11 -5 19 14 37 19 17 23 30 20 52 -5 26 3 36 18 21z m-250
-84 c10 -11 16 -27 13 -35 -3 -8 0 -15 7 -15 7 -1 19 -2 27 -3 9 0 14 -9 12
-20 -3 -16 -1 -18 10 -9 16 14 44 0 33 -16 -5 -8 -11 -9 -19 -2 -18 15 -75
-44 -59 -60 8 -8 17 -3 33 18 19 26 27 30 68 29 43 -1 47 -3 44 -25 -2 -19 0
-21 12 -12 7 6 24 9 37 7 13 -3 30 -5 37 -5 6 -1 12 -8 12 -17 0 -11 6 -14 20
-9 12 4 20 2 20 -6 0 -9 3 -9 14 0 19 16 46 3 46 -21 0 -15 3 -18 13 -11 15
13 78 15 95 4 11 -7 8 -19 -13 -61 -24 -47 -29 -51 -53 -45 -15 4 -28 8 -30
10 -2 2 6 21 17 44 12 22 21 44 21 48 -1 4 -12 -13 -26 -39 -13 -27 -29 -48
-35 -48 -6 0 -1 15 10 34 25 40 26 45 6 42 -9 -1 -25 -17 -35 -34 -12 -19 -28
-32 -40 -32 -26 0 -36 25 -20 45 7 9 10 18 7 22 -4 3 -12 -6 -18 -21 -7 -14
-16 -26 -21 -26 -5 0 -1 15 11 33 31 51 10 67 -23 17 -14 -22 -32 -40 -39 -40
-21 0 -40 17 -32 30 5 8 10 9 18 1 18 -18 31 -13 54 23 31 47 4 58 -33 13 -17
-22 -24 -25 -20 -12 5 14 0 11 -18 -10 -30 -35 -35 -25 -6 12 30 38 11 52 -19
14 -28 -34 -41 -37 -71 -19 -19 12 -19 13 6 39 15 15 23 32 20 38 -4 6 -18 -2
-35 -21 -30 -34 -67 -35 -54 -1 6 16 5 16 -10 5 -9 -8 -21 -11 -27 -7 -14 9
-3 25 13 19 15 -5 74 53 64 63 -4 3 -18 -4 -32 -17 -37 -35 -64 -36 -31 -1 41
43 30 49 -12 8 -37 -37 -57 -41 -45 -9 4 10 2 13 -5 8 -19 -12 -14 30 6 45 15
13 16 12 4 -3 -14 -18 -7 -43 9 -33 5 3 6 -2 2 -12 -4 -11 7 -5 30 16 29 28
34 38 26 53 -11 21 -20 23 -38 6 -11 -11 -11 -9 -2 10 14 27 22 28 44 1z
m1835 -11 c7 -7 12 -8 12 -3 0 4 9 0 20 -10 39 -36 16 -43 -32 -11 -16 10 -28
22 -28 27 0 13 14 11 28 -3z m-1317 -23 c-3 -19 -2 -19 17 -2 16 15 52 15 52
1 0 -4 -48 -84 -56 -92 -1 -2 -12 -1 -24 3 -16 5 -20 12 -16 28 5 20 4 21 -8
5 -14 -20 -51 -24 -61 -8 -4 6 -11 7 -18 3 -6 -3 -1 10 12 30 12 20 19 37 14
37 -4 0 -2 4 6 9 8 5 30 8 50 7 30 -1 35 -4 32 -21z m1262 17 c6 14 77 -58 76
-77 0 -5 -13 5 -29 24 -36 42 -51 35 -20 -8 12 -17 17 -31 11 -31 -5 0 -19 16
-31 36 -16 25 -26 32 -33 25 -7 -7 -5 -16 6 -29 20 -22 22 -42 5 -43 -7 -1
-25 -3 -41 -5 -21 -2 -30 3 -42 25 -8 16 -21 31 -30 34 -19 8 -19 2 2 -34 19
-32 18 -36 -17 -41 -19 -2 -29 5 -47 37 -12 22 -23 46 -23 53 0 15 46 16 55 2
5 -8 11 -7 20 0 8 7 20 8 26 4 8 -4 9 -3 5 5 -11 17 23 26 46 12 15 -9 20 -8
24 4 5 11 10 13 19 5 9 -8 15 -7 18 2z m-1096 -38 c3 -9 12 -12 24 -9 11 4 19
4 19 1 0 -16 -34 -86 -41 -86 -5 0 -3 13 6 30 17 34 19 44 5 35 -5 -3 -10 0
-11 7 0 7 -7 -4 -15 -24 -16 -38 -34 -51 -59 -42 -19 7 -19 22 0 54 8 14 14
30 14 35 0 6 -11 -12 -25 -38 -14 -27 -28 -47 -30 -44 -3 3 1 18 10 35 8 16
12 33 8 36 -10 11 16 23 54 24 23 1 37 -4 41 -14z m891 -39 c25 -51 26 -55 13
-55 -5 0 -14 14 -21 30 -7 17 -19 30 -27 30 -11 0 -13 -5 -8 -17 4 -10 9 -27
12 -38 4 -20 4 -20 -11 -1 -9 11 -16 25 -16 32 0 7 -8 17 -17 23 -15 8 -16 12
-5 23 11 11 14 10 22 -2 8 -12 10 -12 16 3 10 26 18 21 42 -28z m-782 10 c-15
-59 -25 -75 -50 -75 -34 0 -38 11 -19 59 14 35 20 41 46 41 26 0 29 -3 23 -25z
m70 11 c3 -8 0 -32 -6 -55 -10 -36 -14 -41 -40 -41 -35 0 -38 17 -15 74 16 37
50 50 61 22z m620 -32 c15 -39 15 -47 3 -55 -38 -24 -61 -4 -74 64 -7 36 -6
37 23 37 27 0 32 -5 48 -46z m994 -61 c0 -4 -15 6 -32 23 l-33 29 25 -30 c14
-16 31 -34 37 -38 15 -9 14 -59 -1 -50 -5 4 -7 -1 -3 -11 7 -17 2 -26 -37 -68
l-19 -21 -28 34 c-22 27 -30 32 -40 21 -11 -10 -10 -18 4 -41 24 -41 22 -46
-22 -69 -36 -19 -40 -19 -57 -4 -10 10 -13 10 -6 2 14 -16 16 -30 4 -30 -4 0
-16 16 -26 35 -11 19 -25 35 -32 35 -10 0 -8 -9 6 -32 25 -41 25 -45 0 -58
-15 -8 -23 -6 -41 12 -21 23 -21 23 -10 1 13 -26 14 -33 3 -33 -5 0 -17 18
-27 40 -10 22 -21 37 -26 35 -12 -8 -20 11 -12 30 5 16 8 15 25 -6 19 -24 19
-24 8 -1 -6 12 -8 27 -5 32 8 14 39 12 53 -2 9 -9 12 -8 12 5 0 24 48 53 62
39 8 -8 7 -13 -5 -17 -9 -4 -13 -13 -10 -22 5 -12 3 -14 -8 -8 -8 5 -11 5 -6
-1 5 -5 13 -9 17 -9 5 0 16 -9 24 -20 14 -19 15 -19 33 -2 12 12 13 17 4 15
-7 -2 -15 2 -18 9 -2 6 3 10 13 9 10 -2 20 -8 22 -14 4 -13 22 -7 22 7 0 5 -9
20 -21 35 -16 20 -24 24 -34 16 -18 -15 -31 6 -15 26 10 11 16 12 26 3 11 -9
14 -8 14 6 0 10 3 15 7 12 3 -4 11 3 18 16 6 12 19 21 29 20 11 0 15 4 12 13
-3 7 2 21 11 29 11 12 14 28 11 60 l-5 43 38 -48 c22 -27 39 -53 39 -57z
m-1538 92 c8 -8 -8 -85 -20 -97 -17 -17 -52 1 -52 27 0 44 18 75 43 75 13 0
26 -2 29 -5z m166 -52 l3 -53 -35 0 c-35 0 -36 1 -36 36 0 49 16 76 43 72 19
-3 22 -10 25 -55z m66 51 c12 -4 16 -20 16 -55 l0 -49 -35 0 -35 0 0 48 c0 62
11 73 54 56z m186 -35 c14 -51 8 -69 -24 -69 -30 0 -34 6 -42 64 l-7 46 31 0
c28 0 32 -4 42 -41z m49 -5 c7 -26 10 -49 7 -52 -6 -5 -26 42 -26 59 0 6 -4 7
-10 4 -11 -7 -14 18 -3 28 14 14 21 5 32 -39z m839 -50 c-3 -3 -16 9 -28 25
-12 17 -26 31 -32 31 -6 0 2 -16 17 -36 22 -29 25 -38 14 -45 -8 -5 -19 -7
-26 -5 -6 3 -14 -2 -17 -11 -4 -9 -14 -13 -26 -10 -11 3 -18 1 -14 -4 3 -5 2
-9 -3 -9 -4 0 -18 16 -31 36 -12 19 -27 32 -33 29 -5 -4 -1 -17 11 -32 11 -14
20 -32 20 -39 0 -19 -33 -22 -55 -5 -18 15 -19 15 -6 -1 8 -11 9 -18 3 -18 -6
0 -20 16 -32 36 -15 23 -26 32 -32 26 -7 -7 -5 -18 6 -33 9 -13 16 -29 16 -35
0 -17 -41 -25 -57 -12 -11 8 -12 7 -7 -7 11 -29 -14 -8 -31 26 -9 16 -22 29
-31 29 -13 0 -12 -4 2 -31 19 -37 12 -47 -39 -53 -35 -5 -39 -3 -54 29 -9 19
-23 35 -30 35 -17 0 -17 14 0 29 11 8 19 0 37 -39 13 -28 25 -48 27 -46 3 2
-5 22 -16 45 -12 22 -21 44 -21 49 0 15 49 20 60 7 9 -10 17 -8 37 11 31 28
60 31 80 7 7 -10 13 -13 12 -8 -4 32 1 38 19 22 10 -10 21 -14 25 -11 3 3 13
-6 22 -20 10 -14 24 -26 31 -26 20 0 17 10 -11 44 -19 24 -26 27 -38 17 -17
-13 -33 1 -22 19 10 16 43 12 54 -7 9 -16 10 -16 11 3 0 23 15 40 40 46 8 2
21 9 28 16 11 10 17 10 28 1 11 -9 14 -8 14 5 0 10 16 -1 41 -29 23 -25 40
-48 37 -51z m-1258 74 c0 -34 -14 -88 -22 -88 -5 0 -6 16 -2 35 4 25 3 35 -6
35 -10 0 -10 3 0 15 15 18 30 19 30 3z m46 -4 c-3 -9 -6 -31 -6 -50 0 -19 -5
-34 -11 -34 -8 0 -10 12 -6 34 3 22 1 37 -6 40 -9 3 -8 8 3 15 22 15 33 13 26
-5z m198 -6 c9 -36 7 -78 -4 -78 -5 0 -10 15 -10 34 0 19 -5 36 -12 38 -6 2
-8 10 -4 16 11 18 23 14 30 -10z m46 10 c0 -7 3 -31 7 -52 4 -28 3 -37 -5 -32
-7 4 -12 20 -12 37 0 19 -5 29 -15 29 -18 0 -20 16 -2 23 21 9 27 8 27 -5z
m-1434 -72 c5 -21 16 -27 82 -41 85 -19 201 -62 335 -124 129 -60 202 -79 327
-87 92 -6 117 -11 145 -29 20 -14 37 -19 42 -14 5 5 24 6 42 3 l32 -7 -6 -51
c-8 -60 -11 -66 -31 -66 -8 0 -14 -8 -14 -17 0 -10 -9 -33 -20 -51 -25 -41
-25 -45 1 -31 21 11 22 10 16 -27 -4 -22 -7 -51 -7 -66 0 -17 -5 -28 -14 -28
-10 0 -12 11 -9 44 5 39 3 44 -13 42 -13 -2 -22 -15 -28 -39 -6 -25 -15 -37
-27 -37 -17 0 -89 -72 -89 -89 0 -5 5 -11 11 -13 18 -6 0 -116 -20 -123 -30
-9 -75 10 -81 36 l-6 24 -8 -22 c-4 -13 -13 -23 -21 -23 -7 0 -35 -11 -62 -24
-26 -14 -70 -30 -96 -37 -32 -7 -44 -15 -36 -20 13 -7 14 -74 3 -111 -7 -22
-66 -25 -83 -4 -11 13 -5 81 10 121 6 15 -133 141 -164 149 -21 5 -27 13 -28
34 0 27 -1 27 -11 5 -15 -32 -25 -29 -20 5 2 18 -2 33 -12 41 -14 11 -16 11
-16 -3 0 -10 -5 -26 -10 -36 -9 -16 -15 -17 -40 -8 -35 12 -34 10 -16 71 8 26
10 47 6 47 -5 0 -14 -22 -21 -50 -7 -27 -17 -50 -22 -50 -4 0 -5 10 -1 23 4
12 8 36 8 52 1 17 5 35 9 42 5 7 -16 31 -55 63 -89 71 -198 121 -198 90 0 -6
-11 -3 -24 5 -78 52 -171 -116 -165 -299 1 -31 6 -56 11 -56 4 0 8 -6 8 -14 0
-7 9 -25 20 -39 21 -26 27 -53 10 -42 -10 6 9 -45 20 -55 3 -3 14 -21 23 -40
9 -19 26 -46 38 -60 l21 -25 -6 53 c-4 38 -2 52 8 52 9 0 11 -14 8 -55 -2 -30
-1 -62 3 -72 7 -16 9 -15 15 7 13 40 12 82 -1 74 -7 -4 -10 -1 -7 6 2 8 10 16
18 18 10 4 12 -9 7 -66 l-7 -70 53 -45 c111 -95 269 -161 471 -197 61 -11 116
-26 121 -33 6 -6 28 -13 49 -14 22 -2 43 -6 47 -10 4 -5 9 -33 11 -63 l3 -55
-46 1 c-44 0 -46 -2 -70 -45 -22 -41 -24 -52 -15 -99 5 -29 6 -55 2 -59 -3 -4
-23 -2 -43 3 -32 8 -45 5 -92 -18 -29 -16 -60 -28 -68 -28 -14 0 -11 -25 9
-79 11 -31 6 -34 -32 -26 -32 7 -41 21 -55 84 -7 31 -5 33 14 28 11 -3 21 -4
21 -2 0 5 -135 83 -175 100 -42 18 -171 55 -194 55 -11 0 -11 -3 0 -17 13 -16
12 -17 -3 -5 -9 8 -22 11 -27 8 -5 -4 -12 -2 -16 4 -14 23 -59 10 -95 -29 -75
-78 -80 -214 -14 -337 53 -100 88 -148 168 -232 175 -184 447 -302 700 -304
55 -1 110 0 121 2 45 6 122 -1 139 -13 10 -7 20 -29 22 -48 2 -19 12 -58 21
-88 l17 -54 -40 -35 c-124 -109 -450 -173 -649 -127 -359 84 -719 372 -889
712 -101 203 -123 452 -52 608 28 61 101 136 173 177 29 16 55 33 57 37 3 4
-13 29 -35 56 -102 127 -168 251 -201 377 -31 121 -31 305 1 408 53 176 176
316 357 408 96 49 225 77 380 84 41 2 61 7 61 15 0 7 -4 13 -9 13 -4 0 -8 5
-8 10 0 20 20 9 26 -14z m753 -65 c12 -8 11 -17 -6 -58 -18 -42 -23 -48 -48
-46 -38 3 -40 7 -21 54 25 61 13 58 -14 -3 -12 -29 -24 -48 -27 -41 -2 6 3 25
12 42 12 24 12 31 3 31 -8 1 -7 5 4 14 20 15 77 19 97 7z m1145 -43 c11 -26
18 -50 15 -52 -2 -2 -18 -7 -35 -10 -30 -7 -32 -5 -52 45 -12 28 -19 55 -16
61 3 5 20 8 37 6 27 -3 34 -10 51 -50z m-79 -27 c19 -53 2 -62 -18 -10 -9 23
-21 38 -27 34 -14 -9 -13 18 2 33 14 14 21 5 43 -57z m-1008 45 c-3 -8 -11
-32 -18 -55 -6 -22 -16 -38 -20 -35 -5 2 -4 17 2 31 5 15 7 33 4 41 -3 9 0 19
7 24 20 12 31 10 25 -6z m83 -2 c0 -29 -23 -96 -35 -100 -6 -3 -23 0 -38 5
-26 10 -26 11 -12 51 20 58 23 60 56 60 20 0 29 -5 29 -16z m865 -35 c9 -28
15 -52 14 -54 -2 -2 -20 -5 -39 -7 -34 -3 -35 -2 -52 47 -9 27 -14 53 -11 57
2 5 19 8 38 8 31 0 34 -3 50 -51z m946 30 c6 -12 12 -32 14 -46 1 -13 12 -33
24 -44 22 -21 27 -72 8 -97 -8 -9 -14 -6 -27 16 -10 16 -25 29 -34 29 -20 0
-20 -1 1 -40 9 -18 18 -27 21 -19 2 7 -2 19 -8 28 -7 8 -11 17 -8 19 3 3 13
-10 23 -29 16 -29 17 -37 6 -50 -19 -23 -27 -20 -41 13 -6 16 -18 32 -25 35
-7 2 -2 -14 12 -40 14 -24 20 -44 15 -44 -5 0 -15 14 -22 30 -7 17 -15 30 -19
31 -3 0 -16 2 -28 5 -13 2 -23 2 -23 -1 0 -14 35 -75 43 -75 9 0 7 13 -8 55
-4 11 2 7 14 -10 11 -16 21 -37 21 -46 0 -22 -24 -31 -39 -16 -9 9 -11 8 -6
-5 5 -12 -2 -21 -24 -32 -16 -9 -32 -16 -34 -16 -2 0 -12 18 -22 40 -22 49
-40 42 -19 -8 14 -34 14 -38 -2 -49 -26 -19 -39 -16 -52 10 -11 21 -11 20 -6
-5 5 -23 2 -30 -17 -37 -19 -8 -28 -5 -42 12 -18 21 -18 21 -11 -8 10 -40 -12
-24 -26 20 -6 19 -18 35 -26 35 -18 0 -18 24 0 39 11 9 15 9 19 -1 4 -9 6 -8
6 3 2 34 53 38 69 7 11 -22 11 -22 6 4 -8 35 23 54 48 31 17 -15 18 -15 18 2
0 21 39 58 55 51 6 -2 17 5 24 16 10 16 15 17 27 8 11 -10 14 -9 14 5 0 10 3
15 7 12 4 -4 13 7 20 24 7 17 17 28 23 24 6 -3 10 4 10 17 0 13 4 28 10 34 5
5 6 24 1 47 -10 42 -7 47 10 16z m-1727 3 c2 -4 -1 -29 -7 -55 -10 -47 -11
-48 -46 -45 -33 3 -36 5 -33 31 6 57 20 77 51 77 16 0 32 -3 35 -8z m633 -42
c17 -56 11 -70 -26 -70 -33 0 -45 15 -55 71 -8 43 -1 51 38 47 26 -3 32 -9 43
-48z m58 -2 c18 -61 17 -58 5 -58 -5 0 -14 18 -20 40 -6 22 -14 39 -18 39 -19
-3 -23 2 -12 16 20 24 28 18 45 -37z m-640 5 c-10 -56 -15 -73 -24 -73 -5 0
-5 18 -1 40 5 26 3 41 -4 44 -7 3 -6 8 4 15 26 18 31 12 25 -26z m50 -22 c-4
-28 -11 -51 -17 -51 -6 0 -7 16 -3 41 5 29 4 40 -4 35 -6 -4 -11 -1 -11 8 0
12 28 27 39 20 1 -2 0 -26 -4 -53z m93 36 c2 -11 1 -34 -3 -53 -4 -25 -12 -35
-31 -40 -46 -12 -61 30 -38 104 6 21 68 11 72 -11z m87 -37 l0 -55 -35 0 c-34
0 -35 1 -38 44 -5 62 2 73 40 69 33 -3 33 -3 33 -58z m207 5 c7 -53 1 -65 -37
-65 -33 0 -45 20 -45 73 l0 48 37 -3 c37 -3 38 -4 45 -53z m56 3 c11 -56 10
-64 -7 -53 -6 3 -11 22 -11 40 0 26 -3 33 -15 29 -18 -7 -20 7 -3 24 20 20 25
14 36 -40z m-206 -5 c6 -59 -7 -78 -17 -26 -4 21 -12 41 -18 45 -9 6 -8 11 3
18 25 16 28 12 32 -37z m58 -8 c0 -30 -4 -55 -10 -55 -5 0 -10 18 -10 39 0 22
-5 41 -12 43 -15 5 -1 28 18 28 10 0 14 -14 14 -55z m1179 -20 c0 -5 -11 4
-24 20 -14 17 -25 35 -25 40 0 6 11 -3 25 -20 13 -16 24 -34 24 -40z m-91 27
c2 -6 -5 -9 -14 -8 -10 2 -20 8 -22 14 -2 6 5 9 14 8 10 -2 20 -8 22 -14z
m-204 -78 c14 -26 26 -53 26 -60 0 -15 -43 -29 -59 -19 -6 3 -11 1 -11 -4 0
-25 -18 -8 -33 30 -9 23 -21 38 -27 34 -5 -3 -10 2 -10 14 0 32 18 34 34 4 8
-15 15 -24 16 -20 0 5 -5 17 -10 27 -8 15 -6 21 7 29 31 18 40 12 67 -35z
m-116 -38 c27 -58 23 -76 -17 -76 -26 0 -33 6 -51 46 -25 57 -25 71 -2 77 34
10 47 1 70 -47z m-86 -9 c29 -71 31 -77 20 -77 -5 0 -17 18 -26 40 -9 22 -20
39 -25 38 -10 -3 -11 10 -4 30 9 21 17 13 35 -31z m-52 -13 c27 -61 25 -71
-10 -79 -40 -9 -54 4 -70 61 -15 51 -7 64 38 64 18 0 27 -10 42 -46z m-149
-29 c21 -63 16 -75 -32 -75 -36 0 -39 2 -48 38 -21 73 -11 93 44 89 15 -2 24
-15 36 -52z m62 2 c20 -62 20 -67 7 -67 -5 0 -15 18 -21 40 -8 27 -17 39 -26
36 -8 -3 -13 2 -13 13 0 17 11 27 31 30 3 1 13 -23 22 -52z m-151 -55 c6 -37
-17 -25 -27 14 -6 25 -15 39 -22 37 -19 -7 -16 18 5 33 15 11 18 9 29 -27 6
-21 13 -47 15 -57z m-79 74 c3 -7 8 -34 12 -59 l7 -46 -35 -6 c-20 -4 -40 -4
-46 -1 -12 8 -25 90 -17 111 7 19 72 20 79 1z m-629 -60 c-8 -64 -24 -76 -24
-16 0 22 -4 40 -10 40 -18 0 -10 17 13 27 12 6 23 9 25 8 1 -1 0 -28 -4 -59z
m95 55 c10 -7 12 -21 8 -56 -4 -26 -9 -51 -13 -56 -8 -14 -60 -11 -72 4 -10
12 -8 67 4 105 4 14 52 16 73 3z m99 0 c9 -5 12 -25 10 -62 l-3 -54 -40 0 -40
0 -3 54 c-3 57 5 71 43 71 11 0 26 -4 33 -9z m160 1 c7 -5 13 -32 15 -63 l2
-54 -39 -3 c-24 -2 -42 2 -47 10 -13 20 -11 92 3 106 14 14 47 16 66 4z m112
-12 c6 -12 10 -40 8 -63 -3 -42 -3 -42 -43 -42 l-40 0 -5 52 c-7 68 -4 73 35
73 24 0 38 -6 45 -20z m64 -2 c16 -78 17 -100 4 -96 -7 3 -14 21 -16 42 -2 28
-7 36 -18 32 -17 -7 -19 15 -2 32 18 18 27 15 32 -10z m-264 -48 c0 -33 -4
-60 -10 -60 -5 0 -10 20 -10 45 0 35 -3 43 -15 39 -21 -8 -19 13 3 25 29 17
32 13 32 -49z m1530 -52 c0 -5 -4 -6 -10 -3 -5 3 -10 1 -10 -4 0 -6 5 -11 10
-11 6 0 10 -12 10 -26 0 -17 -4 -23 -12 -18 -8 5 -9 2 -4 -11 4 -11 0 -24 -11
-35 -17 -16 -19 -14 -36 19 -9 20 -15 27 -11 16 18 -60 16 -83 -6 -95 -25 -13
-24 -14 -37 24 -5 17 -14 31 -21 34 -7 2 -5 -12 6 -39 15 -40 15 -42 -3 -56
-17 -12 -21 -12 -33 4 -13 17 -14 16 -8 -4 5 -16 1 -25 -15 -34 -19 -10 -25
-9 -37 7 -13 18 -14 18 -7 -3 4 -14 2 -23 -4 -23 -6 0 -15 18 -21 40 -6 22
-15 38 -20 35 -4 -3 -11 1 -14 7 -3 7 -3 2 1 -12 4 -14 7 -41 8 -60 0 -29 -4
-36 -24 -38 -13 -2 -28 2 -32 10 -7 10 -9 9 -9 -4 0 -18 -28 -38 -54 -38 -9 0
-21 19 -30 48 -14 43 -14 26 0 -33 10 -42 -12 -28 -25 15 -7 22 -16 38 -20 35
-18 -11 -19 24 -1 40 14 13 19 13 23 3 4 -9 6 -8 6 3 2 38 66 39 80 2 11 -28
11 -28 5 4 -4 25 -1 34 16 43 11 6 30 8 40 5 14 -4 22 -1 26 10 6 13 8 14 15
3 7 -10 9 -9 9 4 0 23 33 41 48 26 9 -9 12 -8 12 3 0 24 21 40 37 28 9 -9 13
-8 13 0 0 19 50 69 51 51 0 -8 6 1 14 20 7 19 18 34 24 33 6 -2 11 10 11 25 0
16 3 32 7 35 6 7 43 -66 43 -85z m-518 -60 c13 -44 4 -58 -39 -58 -16 0 -25
10 -37 43 -23 63 -23 69 4 84 22 11 27 11 42 -8 10 -12 23 -39 30 -61z m-88
-12 c19 -58 19 -56 6 -56 -5 0 -15 18 -21 40 -8 27 -17 39 -26 36 -16 -7 -17
16 -1 32 16 16 22 8 42 -52z m-59 10 c21 -55 17 -78 -16 -87 -37 -9 -46 -1
-64 57 -14 45 -13 50 2 62 35 25 60 15 78 -32z m-2400 -7 c-8 -19 -13 -26 -10
-15 3 10 0 26 -7 34 -9 11 -9 14 -1 9 6 -4 15 -2 18 4 15 23 15 -1 0 -32z
m2310 -24 c9 -31 13 -60 11 -64 -7 -11 -63 -19 -76 -11 -6 4 -17 30 -24 58
-16 59 -9 72 40 72 31 0 33 -3 49 -55z m-2250 33 c15 -6 25 -19 25 -32 0 -20
0 -20 -15 0 -13 16 -16 17 -25 4 -9 -12 -10 -10 -5 10 5 19 4 21 -4 10 -11
-16 -27 -8 -16 9 8 14 8 14 40 -1z m2145 -36 c20 -74 11 -92 -46 -92 -28 0
-44 31 -47 89 -2 32 1 36 28 41 43 9 53 3 65 -38z m-2260 23 c0 -2 -7 -5 -15
-9 -9 -3 -15 0 -15 9 0 9 6 12 15 9 8 -4 15 -7 15 -9z m2087 -33 c3 -14 6 -42
7 -61 1 -35 0 -36 -42 -39 -49 -4 -56 6 -57 78 0 42 2 45 30 50 41 8 54 2 62
-28z m72 -31 c6 -30 9 -56 7 -58 -11 -11 -24 9 -30 46 -5 30 -10 39 -21 35
-21 -9 -19 23 3 35 23 13 28 6 41 -58z m-2142 35 c-5 -16 -27 -19 -27 -3 0 7
7 14 15 14 9 0 14 -5 12 -11z m73 -21 c0 -5 -5 -3 -11 5 -8 11 -9 8 -4 -15 10
-47 23 -53 36 -16 6 17 13 30 15 28 3 -3 -14 -66 -21 -75 -1 -1 -10 0 -19 4
-9 3 -16 17 -16 33 0 20 -2 23 -10 11 -13 -20 -12 -10 1 29 9 24 14 29 20 19
5 -7 9 -17 9 -23z m1808 22 c6 -7 12 -35 14 -62 l3 -49 -37 -6 c-20 -4 -42 -4
-48 0 -18 11 -25 110 -9 121 21 13 65 11 77 -4z m76 -14 c18 -93 19 -106 5
-101 -8 3 -15 13 -17 24 -8 54 -13 66 -27 60 -21 -8 -19 14 3 30 25 19 30 17
36 -13z m-1815 -47 c-25 -64 -37 -71 -15 -8 11 31 12 42 3 42 -7 0 -3 7 7 15
11 8 21 13 23 11 2 -2 -6 -29 -18 -60z m1163 4 c-2 -30 -8 -59 -12 -64 -5 -5
-25 -4 -47 1 l-38 9 4 50 c1 27 5 53 8 57 3 4 24 7 46 5 l42 -3 -3 -55z m68
-5 c0 -51 -3 -65 -15 -65 -12 0 -13 9 -8 47 5 40 4 46 -10 40 -26 -10 -21 18
6 31 12 6 23 11 25 11 1 1 2 -28 2 -64z m108 -3 l3 -63 -48 3 -48 3 2 48 c2
72 7 79 50 75 l38 -3 3 -63z m111 54 c7 -8 11 -36 9 -63 l-3 -48 -47 -3 -48
-3 0 59 c0 32 3 62 7 65 12 13 70 7 82 -7z m80 -88 c1 -19 -4 -28 -14 -28 -11
0 -15 12 -15 45 0 35 -3 43 -15 39 -23 -9 -18 13 8 31 21 15 22 15 29 -22 4
-21 7 -50 7 -65z m107 79 c3 -13 4 -41 2 -63 l-3 -39 -45 0 -45 0 -3 63 -3 62
45 0 c40 0 46 -3 52 -23z m-1572 0 c17 -13 18 -15 0 -70 -18 -59 -28 -66 -58
-44 -16 12 -16 16 4 70 23 61 27 64 54 44z m2950 -175 c-10 -20 -26 -44 -34
-53 -14 -14 -16 -12 -27 25 l-13 41 6 -48 c5 -48 -8 -83 -27 -71 -5 3 -9 1 -9
-5 0 -9 -50 -41 -64 -41 -3 0 -9 18 -12 40 -4 22 -10 37 -15 34 -10 -6 -12 17
-3 41 5 13 8 14 15 3 6 -9 9 -7 9 8 0 22 24 39 41 28 5 -3 9 2 9 11 0 9 9 19
20 22 12 3 28 19 36 35 8 16 19 26 23 23 5 -2 12 17 16 43 l8 47 20 -73 c20
-71 20 -73 1 -110z m-2906 86 c-12 -35 -23 -57 -26 -50 -2 7 1 27 7 44 8 23 8
34 0 39 -8 4 -5 10 7 18 32 18 33 13 12 -51z m-308 -9 c0 -11 5 -19 10 -19 19
0 25 -2 38 -12 6 -6 12 -19 12 -29 0 -12 5 -16 15 -13 8 4 15 3 15 -1 0 -17
-24 -101 -31 -109 -5 -5 -4 8 2 28 12 45 -2 91 -34 107 -18 10 -19 9 -13 -16
4 -17 3 -24 -4 -20 -5 3 -10 17 -10 29 0 26 -29 100 -30 77 0 -8 -3 -12 -6 -8
-3 3 -3 11 1 17 10 16 35 -7 35 -31z m2646 0 c13 -21 32 -107 25 -117 -3 -5
-21 -13 -38 -17 -29 -6 -34 -4 -43 19 -5 15 -11 45 -12 68 -3 37 0 42 22 49
36 10 38 10 46 -2z m-78 -70 c14 -61 15 -79 3 -79 -6 0 -14 19 -18 43 -5 23
-14 43 -21 43 -7 1 -15 2 -19 3 -8 1 27 41 37 41 4 0 12 -23 18 -51z m-58 -22
c16 -66 10 -77 -46 -77 -36 0 -40 7 -50 79 -7 53 1 61 56 58 22 -2 27 -10 40
-60z m-111 6 c23 -81 12 -103 -49 -103 -31 0 -36 9 -46 79 -7 53 -3 57 58 60
23 1 29 -4 37 -36z m-113 -10 c4 -14 7 -42 8 -62 1 -33 -1 -35 -38 -43 -48
-10 -56 -4 -67 58 -11 58 0 74 52 74 34 0 40 -4 45 -27z m-2308 5 c-2 -5 -8
-9 -13 -9 -5 0 -11 4 -13 9 -1 5 4 9 13 9 9 0 14 -4 13 -9z m2197 -54 c4 -36
4 -68 0 -72 -11 -11 -25 22 -25 60 0 31 -3 35 -20 31 -11 -3 -20 -1 -20 5 0
11 38 42 51 42 4 0 10 -30 14 -66z m-2144 7 c7 12 9 11 9 -3 0 -9 -4 -19 -8
-22 -15 -9 -29 9 -36 44 l-6 35 16 -34 c12 -27 18 -31 25 -20z m16 27 c-3 -8
-6 -5 -6 6 -1 11 2 17 5 13 3 -3 4 -12 1 -19z m59 -53 c-8 -27 -15 -43 -15
-35 -1 8 3 29 8 47 7 22 6 33 -2 37 -8 3 -7 8 3 15 21 15 23 -3 6 -64z m1997
16 c9 -65 2 -74 -55 -75 l-42 -1 -8 55 c-12 75 -7 82 49 78 l48 -3 8 -54z
m-1931 39 c7 0 8 -19 4 -56 -8 -73 -15 -84 -43 -73 -26 10 -27 18 -11 89 8 37
16 49 26 45 7 -3 18 -5 24 -5z m984 -27 c-3 -21 -6 -51 -6 -66 0 -18 -5 -27
-12 -25 -8 3 -11 21 -9 51 2 39 0 46 -13 41 -22 -8 -20 13 2 25 35 21 45 14
38 -26z m116 25 c3 -7 2 -35 -1 -63 l-6 -50 -45 0 -45 0 -3 39 c-6 72 3 86 52
86 26 0 46 -5 48 -12z m192 -8 c5 -5 5 -34 1 -65 l-7 -56 -46 3 -47 3 -3 55
c-3 43 1 57 15 67 18 14 69 9 87 -7z m436 1 c16 -32 13 -108 -6 -115 -31 -12
-82 -6 -88 10 -11 29 -7 112 7 117 31 13 77 6 87 -12z m80 -30 c0 -27 3 -56 6
-65 4 -11 1 -16 -10 -16 -10 0 -16 9 -16 23 0 40 -11 66 -26 60 -24 -9 -16 23
9 35 35 17 37 15 37 -37z m-634 2 c-3 -21 -6 -50 -6 -65 0 -16 -4 -28 -10 -28
-5 0 -10 22 -10 50 0 40 -3 48 -15 44 -21 -8 -19 13 3 25 35 21 45 14 38 -26z
m242 -21 c4 -68 -6 -80 -60 -73 -42 6 -43 7 -46 45 -2 22 -1 50 3 63 5 22 10
24 53 21 l47 -3 3 -53z m72 -7 c0 -37 -4 -65 -10 -65 -5 0 -10 21 -10 46 0 41
-2 45 -20 39 -30 -9 -24 12 8 29 15 8 28 15 30 16 1 0 2 -29 2 -65z m124 8 c4
-31 3 -60 -2 -65 -5 -5 -29 -8 -53 -6 l-44 3 -3 63 -3 62 49 0 49 0 7 -57z
m1226 -17 c14 -55 14 -59 -5 -72 -27 -20 -43 -17 -48 9 -4 19 -4 18 -6 -6 -1
-34 -46 -61 -62 -36 -7 11 -9 11 -9 -3 0 -10 -4 -18 -9 -18 -10 0 -21 34 -21
67 0 16 -4 21 -15 17 -18 -7 -19 0 -5 27 14 25 28 24 33 -3 4 -20 4 -19 6 5 1
34 46 61 62 36 7 -12 9 -11 9 3 0 18 28 39 45 34 6 -1 17 -28 25 -60z m-2793
-24 c-6 -34 -15 -62 -19 -62 -5 0 -6 11 -3 25 3 14 7 37 10 51 4 16 2 23 -5
19 -5 -3 -10 -2 -10 4 0 9 32 33 37 27 1 -1 -3 -30 -10 -64z m67 45 c15 -11
17 -22 12 -63 -10 -70 -16 -78 -50 -63 -26 12 -27 16 -21 58 7 49 21 81 33 81
5 0 16 -6 26 -13z m2961 -49 c-4 -45 -3 -59 4 -48 9 13 11 12 11 -3 0 -23 -34
-89 -54 -106 -17 -15 -21 -9 -29 39 -2 14 -5 2 -6 -26 -1 -48 -19 -83 -34 -67
-4 3 -7 1 -7 -5 0 -7 -4 -12 -10 -12 -5 0 -10 18 -10 40 0 23 -5 40 -11 40 -8
0 -9 -14 -5 -43 6 -36 3 -46 -13 -61 -11 -10 -25 -15 -30 -11 -6 3 -11 1 -11
-4 0 -6 -4 -11 -10 -11 -5 0 -10 15 -10 34 0 19 -7 39 -17 47 -15 13 -16 10
-11 -35 5 -39 2 -52 -13 -67 -29 -29 -49 -24 -50 14 l-2 32 -6 -35 c-8 -44
-49 -70 -68 -43 -12 15 -13 15 -13 -5 0 -12 -4 -22 -9 -22 -10 0 -21 34 -21
68 0 13 -4 20 -10 17 -18 -11 -10 22 10 40 20 18 20 17 22 -26 l1 -44 6 45 c5
34 12 47 30 57 28 14 41 9 42 -15 1 -10 4 -7 8 8 8 30 49 54 67 39 9 -7 15 -6
21 3 4 8 21 24 37 36 22 17 32 19 42 11 10 -8 14 -8 14 -1 0 6 12 23 26 37 21
21 29 24 35 13 7 -10 9 -10 9 3 0 8 14 31 30 49 17 18 30 41 30 50 0 16 8 30
17 30 3 0 2 -28 -2 -62z m-2899 -37 c-14 -75 -31 -94 -21 -23 5 35 3 52 -4 52
-6 0 -11 4 -11 9 0 8 13 14 41 20 3 0 1 -26 -5 -58z m2474 -8 c11 -51 10 -58
-6 -70 -10 -7 -28 -13 -40 -13 -19 0 -23 8 -32 58 -11 62 -5 78 31 84 32 6 35
3 47 -59z m-2413 33 c-3 -7 -9 -34 -12 -60 -4 -25 -11 -46 -16 -46 -5 0 -6 18
-3 41 5 30 3 43 -7 50 -12 8 -12 11 1 19 22 14 43 12 37 -4z m48 -48 c-10 -73
-28 -99 -21 -31 3 35 1 53 -7 57 -9 3 -8 7 3 15 27 19 32 12 25 -41z m2280
-24 c4 -33 3 -54 -4 -58 -6 -4 -13 13 -17 44 -5 41 -9 48 -20 39 -21 -17 -18
10 3 33 21 23 28 12 38 -58z m-2193 54 c14 -11 15 -22 8 -67 -5 -29 -12 -56
-14 -59 -3 -3 -20 -1 -38 5 -32 9 -33 11 -30 59 3 65 7 74 35 74 13 0 30 -6
39 -12z m2132 -53 c9 -51 8 -59 -9 -71 -24 -17 -64 -18 -70 -1 -3 6 -6 37 -8
67 -2 53 -1 55 28 61 46 10 49 7 59 -56z m-2022 27 c5 -5 5 -33 1 -63 -9 -58
-20 -67 -70 -54 -25 6 -25 8 -19 62 4 31 9 60 12 65 7 11 63 3 76 -10z m1923
-53 c5 -33 3 -54 -5 -64 -13 -15 -75 -21 -83 -7 -3 4 -6 32 -8 62 l-4 55 35
11 c45 15 57 5 65 -57z m-2585 52 c0 -6 -4 -13 -10 -16 -5 -3 -10 1 -10 9 0 9
5 16 10 16 6 0 10 -4 10 -9z m38 -70 c-1 -39 -2 -41 -5 -11 -6 54 -13 69 -23
45 -8 -20 -9 -20 -9 1 -1 27 9 36 26 23 8 -7 12 -29 11 -58z m2427 49 c3 -5 9
-33 12 -61 4 -38 2 -53 -8 -60 -18 -12 -76 -12 -83 0 -10 16 -19 99 -13 115 7
18 82 23 92 6z m-103 -87 c6 -68 -17 -75 -27 -9 -5 32 -11 43 -21 39 -23 -9
-16 23 9 40 27 18 32 9 39 -70z m-1522 50 c0 -49 -12 -103 -23 -103 -6 0 -7
19 -4 51 5 42 4 50 -8 45 -9 -3 -15 0 -15 8 0 8 6 17 13 19 27 12 37 6 37 -20z
m103 15 c13 -11 15 -23 9 -68 -7 -52 -9 -55 -37 -58 -16 -2 -38 3 -49 11 -16
12 -18 21 -12 70 7 56 8 57 40 57 18 0 40 -6 49 -12z m1346 -95 c1 -23 -4 -33
-14 -33 -11 0 -15 12 -15 46 0 36 -3 45 -15 41 -27 -11 -25 11 2 31 l28 21 7
-37 c4 -20 7 -52 7 -69z m-79 50 c0 -27 3 -58 6 -70 5 -17 2 -23 -10 -23 -10
0 -16 9 -16 23 0 40 -11 66 -26 60 -23 -9 -16 23 9 40 33 24 37 21 37 -30z
m-1184 6 c-3 -17 -6 -47 -6 -66 0 -23 -4 -33 -12 -31 -8 3 -11 21 -9 51 2 39
0 46 -13 41 -22 -8 -20 13 2 25 33 20 45 13 38 -20z m113 17 c7 -9 9 -31 4
-67 -7 -46 -12 -54 -32 -57 -12 -2 -34 -1 -47 2 -22 6 -24 12 -24 65 0 32 3
61 7 64 12 12 80 7 92 -7z m986 4 c4 -6 9 -35 12 -65 5 -51 4 -54 -19 -60 -14
-4 -38 -5 -54 -3 -27 3 -30 7 -37 56 -6 38 -5 57 3 67 14 17 86 20 95 5z
m-857 -49 c5 -73 -3 -91 -42 -91 -58 0 -66 7 -66 60 0 75 5 81 59 78 l46 -3 3
-44z m737 26 c4 -13 5 -43 3 -68 l-3 -44 -50 0 -50 0 -3 54 c-4 75 0 81 52 81
39 0 46 -3 51 -23z m-1825 -47 c0 -21 -3 -51 -6 -68 -6 -28 -8 -30 -30 -20
-22 10 -24 18 -24 73 0 34 3 64 6 68 3 3 17 1 30 -5 19 -9 24 -19 24 -48z
m1162 -11 c-3 -46 -7 -69 -15 -66 -7 2 -10 22 -8 52 2 40 0 47 -13 42 -10 -4
-16 -1 -16 9 0 12 27 30 50 33 3 1 3 -31 2 -70z m123 1 c0 -64 0 -65 -29 -68
-15 -2 -39 -1 -52 2 -22 6 -24 12 -24 65 0 32 3 61 7 65 4 4 28 6 53 4 l45 -3
0 -65z m124 56 c7 -8 11 -37 9 -68 l-3 -53 -50 0 -50 0 -3 54 c-2 29 -1 60 2
67 7 19 80 18 95 0z m211 -44 c7 -69 -1 -82 -54 -82 -50 0 -56 8 -56 80 0 54
6 60 65 57 l40 -2 5 -53z m80 -12 c0 -81 -16 -94 -26 -21 -5 36 -10 48 -20 44
-24 -9 -16 23 9 35 36 17 37 15 37 -58z m-206 14 c9 -69 8 -84 -9 -84 -11 0
-15 12 -15 46 0 37 -3 45 -15 40 -21 -8 -19 21 3 33 27 16 29 14 36 -35z
m-1451 -56 c-7 -79 -13 -87 -13 -20 0 30 -5 52 -12 54 -15 5 -1 28 17 28 12 0
13 -12 8 -62z m71 39 c16 -12 18 -22 12 -70 -8 -61 -22 -71 -59 -44 -15 10
-17 22 -11 70 7 61 21 71 58 44z m2976 -23 c0 -16 -4 -23 -11 -18 -9 5 -10 -6
-6 -41 6 -59 -14 -96 -77 -145 -18 -14 -18 -13 -11 28 4 28 3 42 -4 42 -7 0
-11 -21 -11 -50 0 -27 -3 -50 -7 -50 -5 0 -7 24 -7 53 2 74 3 79 14 72 6 -3
10 -2 10 4 0 5 20 31 45 58 25 26 45 54 45 60 0 7 5 13 10 13 6 0 10 -12 10
-26z m-2910 -59 c0 -37 -4 -65 -10 -65 -5 0 -10 20 -10 44 0 26 -5 46 -12 50
-9 3 -7 9 6 20 11 9 21 16 23 16 2 0 3 -29 3 -65z m56 -1 c-3 -26 -6 -55 -6
-65 0 -11 -5 -19 -11 -19 -7 0 -8 16 -3 46 5 34 3 49 -7 55 -12 8 -12 11 1 19
27 18 33 10 26 -36z m2369 -24 c0 -64 0 -64 -33 -74 -18 -5 -35 -7 -38 -4 -3
3 -8 32 -11 63 -5 50 -3 60 13 72 10 8 30 13 44 11 24 -3 25 -6 25 -68z
m-2309 28 c-3 -13 -6 -42 -6 -65 0 -25 -5 -43 -11 -43 -8 0 -10 17 -7 50 4 38
2 50 -8 50 -15 0 -18 12 -7 23 3 4 15 7 26 7 15 0 18 -5 13 -22z m97 -2 c8
-12 -1 -107 -12 -118 -3 -4 -20 -4 -36 0 -28 8 -30 12 -33 61 -4 74 1 84 40
76 18 -4 36 -13 41 -19z m2117 -39 c3 -32 2 -63 -1 -69 -4 -6 -24 -11 -45 -12
l-39 -1 0 65 c0 60 2 65 25 71 48 14 55 7 60 -54z m-2015 -37 l0 -65 -29 2
c-52 4 -56 9 -56 66 0 63 10 76 53 68 32 -7 32 -7 32 -71z m1909 54 c3 -9 6
-38 6 -66 0 -62 -23 -62 -28 0 -2 31 -7 40 -18 35 -19 -7 -18 6 3 29 20 22 29
23 37 2z m-1796 -19 c11 -10 12 -25 5 -66 -8 -52 -10 -54 -38 -52 -51 4 -55 9
-55 71 0 32 3 61 6 65 9 9 67 -4 82 -18z m1727 -44 l0 -65 -34 -8 c-54 -14
-61 -7 -61 66 0 71 4 76 60 73 l35 -2 0 -64z m-115 -11 c0 -33 0 -63 1 -67 0
-4 -4 -9 -10 -11 -7 -2 -11 14 -11 42 0 39 -3 46 -20 46 -11 0 -20 4 -20 9 0
11 39 41 52 41 5 0 8 -27 8 -60z m-1534 13 c-3 -21 -6 -50 -6 -65 0 -16 -4
-28 -10 -28 -5 0 -10 22 -10 50 0 40 -3 48 -15 44 -21 -8 -19 13 3 25 35 21
45 14 38 -26z m116 15 c4 -7 6 -22 3 -33 -2 -11 -5 -35 -5 -53 l0 -33 -47 3
-48 3 -3 44 c-2 25 -1 55 3 69 5 22 10 24 47 19 22 -3 45 -11 50 -19z m1346
-39 c3 -62 -6 -76 -53 -79 -55 -4 -55 -4 -55 63 0 35 3 67 7 71 4 4 28 6 53 4
l45 -3 3 -56z m-133 -19 l0 -64 -40 -8 c-61 -13 -66 -7 -63 64 3 57 5 63 28
69 14 4 36 7 50 6 24 -2 25 -5 25 -67z m-1135 -5 c0 -51 -3 -65 -15 -65 -11 0
-15 12 -15 45 0 33 -4 45 -15 45 -22 0 -18 15 8 28 36 17 37 15 37 -53z m108
56 c9 -5 12 -26 10 -67 l-3 -59 -44 -3 c-28 -2 -47 1 -52 10 -8 12 -4 83 6
116 5 13 63 16 83 3z m886 3 c12 -5 16 -21 16 -65 0 -55 -2 -60 -27 -70 -15
-5 -38 -9 -52 -7 -25 3 -26 6 -26 68 l0 65 35 6 c19 4 36 7 37 8 1 0 8 -2 17
-5z m1056 -118 c-8 -8 -9 0 -4 32 4 28 3 42 -5 42 -6 0 -11 -17 -11 -40 0 -27
-7 -47 -20 -60 -27 -27 -38 -25 -43 8 -4 25 -4 25 -6 -5 0 -18 -5 -33 -11 -33
-6 0 -7 18 -3 47 5 36 3 44 -6 38 -9 -5 -12 -2 -9 11 2 10 22 32 46 48 33 24
45 28 51 17 6 -10 10 -9 17 6 6 13 10 2 12 -41 2 -34 -2 -64 -8 -70z m-1805
44 l0 -65 -50 0 -50 0 -3 54 c-4 77 -1 83 55 79 l48 -3 0 -65z m635 0 c0 -56
-3 -70 -15 -70 -11 0 -15 12 -15 46 0 37 -3 45 -15 40 -27 -10 -16 23 13 38
15 8 28 15 30 16 1 0 2 -31 2 -70z m-552 -5 c-4 -77 -22 -92 -26 -22 -2 38 -6
47 -18 43 -23 -9 -16 20 9 32 36 18 38 15 35 -53z m127 -5 l0 -65 -50 0 -50 0
-3 54 c-4 77 -1 83 55 79 l48 -3 0 -65z m130 0 l0 -65 -50 0 -50 0 -3 54 c-4
77 -1 83 55 79 l48 -3 0 -65z m85 0 c0 -56 -3 -70 -15 -70 -11 0 -15 12 -15
50 0 40 -3 48 -15 44 -26 -11 -16 15 13 30 15 8 28 15 30 16 1 0 2 -31 2 -70z
m128 3 c3 -59 2 -63 -21 -68 -14 -4 -38 -5 -53 -3 -27 3 -29 6 -32 57 -4 77
-1 83 55 79 l48 -3 3 -62z m1582 37 c28 -15 53 -75 45 -107 -8 -34 -107 -129
-193 -186 -62 -41 -63 -42 -39 -52 37 -15 63 -42 88 -88 27 -53 20 -97 -22
-150 l-32 -39 34 7 c81 16 107 31 191 112 50 48 95 83 106 83 24 0 55 -27 49
-44 -2 -6 3 -16 12 -23 13 -9 13 -14 4 -24 -10 -10 -7 -15 16 -25 31 -13 61
-63 61 -100 0 -12 -16 -43 -35 -68 l-34 -45 37 17 c63 29 131 70 208 127 74
55 97 64 109 45 9 -15 -7 -32 -89 -94 -84 -63 -189 -123 -249 -142 -39 -12
-40 -13 -12 -13 43 -1 155 55 263 133 51 37 98 66 104 64 18 -6 -148 -124
-237 -168 -107 -54 -140 -59 -196 -28 -38 21 -44 29 -47 62 -2 28 4 49 23 78
l26 39 -33 -17 c-48 -24 -116 -73 -161 -113 -33 -30 -41 -33 -51 -21 -6 8 -18
16 -26 18 -22 5 -39 30 -33 51 4 16 -4 19 -58 24 -57 5 -66 3 -103 -22 -102
-70 -156 -85 -201 -55 -24 16 -27 15 -60 -10 -34 -26 -48 -45 -22 -30 6 4 3
-3 -8 -15 -11 -13 -27 -20 -37 -18 -18 5 -42 -15 -31 -26 3 -4 -3 -10 -13 -13
-10 -4 -26 -13 -35 -21 -9 -8 -20 -13 -25 -12 -5 1 -12 0 -16 -1 -5 -1 -11 -3
-15 -4 -5 -1 -21 -10 -36 -20 -15 -10 -30 -16 -34 -12 -3 3 -13 0 -22 -7 -13
-10 -13 -7 2 15 10 16 13 29 7 33 -6 3 -10 2 -10 -3 0 -19 -59 -72 -80 -72
-14 0 -19 4 -14 13 4 6 -3 2 -16 -11 -14 -15 -32 -23 -48 -21 -15 1 -40 -3
-55 -10 -50 -20 -60 -16 -42 20 9 17 15 33 12 35 -2 2 -12 -14 -22 -36 -10
-22 -22 -40 -27 -40 -11 0 -10 7 2 31 8 14 7 19 -2 19 -19 0 18 33 39 35 10 0
23 3 28 7 6 3 23 8 39 12 30 7 31 6 11 -49 -4 -11 4 -2 17 19 15 26 33 42 52
47 37 10 41 7 26 -21 -8 -15 -8 -20 -1 -16 6 4 11 2 11 -3 0 -22 26 -10 43 19
21 35 7 40 -23 8 -22 -24 -28 -12 -7 16 7 9 28 18 47 19 19 2 52 11 73 21 21
10 46 19 55 20 9 1 33 10 52 21 19 10 56 29 83 42 45 21 67 46 53 60 -3 4 -36
-8 -72 -26 -102 -51 -135 -63 -190 -70 -40 -6 -54 -4 -61 7 -7 13 -13 11 -36
-11 -24 -25 -56 -35 -69 -21 -4 3 3 28 14 55 12 27 18 52 15 55 -3 4 -22 -4
-41 -16 -25 -15 -39 -33 -47 -61 -15 -48 -26 -58 -73 -66 l-36 -6 5 34 5 34
-13 -34 c-7 -19 -19 -37 -27 -39 -8 -3 -11 1 -8 9 19 49 19 59 4 53 -10 -4
-16 -1 -16 10 0 8 -10 21 -22 27 -13 7 -29 21 -37 31 -8 12 -19 17 -30 13 -46
-18 -115 -24 -156 -14 -41 10 -45 9 -93 -24 -28 -19 -62 -37 -76 -41 -22 -5
-25 -12 -28 -53 -3 -52 -28 -74 -28 -25 0 17 -6 33 -12 35 -10 4 -9 8 2 16 13
9 13 11 -2 11 -9 0 -22 2 -30 3 -7 2 -10 2 -5 0 9 -6 9 -64 -1 -80 -10 -15
-79 -20 -93 -6 -7 7 -9 25 -5 46 6 30 11 36 43 42 l37 7 -47 29 c-30 19 -49
38 -53 56 -7 26 -7 26 -15 5 -5 -12 -15 -22 -24 -22 -8 0 -46 -16 -84 -35 -37
-19 -74 -35 -82 -35 -8 0 -7 -4 5 -13 12 -9 17 -23 14 -47 -3 -34 -4 -35 -48
-35 -45 0 -45 0 -48 38 -4 50 -22 48 -22 -3 0 -22 -4 -40 -10 -40 -5 0 -10 16
-10 35 0 25 -4 35 -16 35 -9 0 -14 6 -11 13 6 18 -65 56 -81 44 -10 -8 -6 -13
20 -21 28 -9 34 -17 39 -49 7 -44 -1 -50 -52 -45 -27 2 -34 9 -45 38 l-12 35
-1 -32 c-1 -29 -4 -33 -29 -33 -19 0 -39 -11 -62 -35 -32 -33 -33 -36 -22 -71
l11 -36 -39 5 c-31 4 -43 1 -59 -17 -20 -21 -20 -22 -2 -38 12 -10 23 -12 34
-7 10 6 18 5 23 -3 4 -7 14 -23 22 -36 8 -12 10 -22 5 -22 -5 0 -15 11 -21 25
-6 14 -19 25 -27 25 -13 0 -14 -4 -5 -20 10 -18 8 -20 -17 -19 -21 0 -24 2
-10 7 16 7 16 9 2 30 -14 19 -45 31 -45 18 0 -2 -3 -13 -6 -23 -4 -13 -3 -14
4 -5 8 11 10 11 15 0 3 -10 -5 -15 -26 -16 -36 -3 -58 -19 -42 -30 14 -10 18
-42 5 -42 -6 0 -9 4 -5 9 9 15 -14 24 -29 12 -10 -8 -17 -7 -26 4 -7 9 -18 14
-24 12 -6 -3 -19 2 -28 11 -13 11 -15 19 -7 33 5 11 7 25 3 31 -5 7 -3 8 5 3
9 -5 12 -2 9 10 -5 27 -35 42 -50 27 -7 -8 -8 -13 -3 -12 19 4 26 0 20 -11
-10 -15 -45 19 -38 37 6 16 38 10 63 -12 13 -11 21 -9 49 13 l33 26 -23 13
c-13 7 -27 10 -31 8 -5 -3 -17 11 -29 30 -22 37 -45 40 -33 4 6 -19 3 -20 -22
-14 -16 4 -35 7 -42 8 -7 1 -22 16 -33 35 -28 44 -52 47 -29 2 13 -23 0 -25
-33 -7 -12 7 -30 13 -40 15 -29 5 -89 55 -83 69 3 8 -2 11 -14 9 -23 -4 -36
10 -18 21 6 4 13 3 15 -3 2 -6 12 -9 21 -6 9 2 26 -3 37 -11 20 -15 20 -15 -3
-9 -29 7 -26 -14 6 -40 18 -15 26 -16 37 -7 11 9 16 7 25 -9 6 -12 17 -21 26
-21 12 0 13 4 3 21 -7 13 -7 19 -1 15 6 -3 13 -2 17 4 4 6 12 7 18 3 7 -4 22
-6 34 -5 13 2 32 -6 46 -20 20 -20 26 -22 37 -10 11 13 17 8 37 -29 13 -24 21
-35 17 -24 -17 52 -17 55 6 55 12 0 35 -14 50 -30 22 -24 27 -26 23 -10 -4 16
0 20 20 20 16 0 33 11 51 35 23 29 25 40 20 76 l-7 42 45 -6 c41 -6 47 -4 77
27 30 31 32 38 26 76 -5 30 -11 40 -21 36 -8 -3 -14 1 -14 9 0 8 4 15 9 15 5
0 16 3 24 6 12 4 17 -5 22 -41 9 -55 20 -51 16 6 l-3 41 49 -3 c46 -4 51 -1
121 56 49 41 72 66 72 81 0 17 -4 21 -20 17 -29 -8 -25 16 6 27 34 13 32 14
37 -17 4 -27 5 -27 12 -6 10 31 90 69 110 53 8 -7 15 -21 15 -31 0 -17 2 -17
35 -3 35 14 35 14 35 -11 0 -31 17 -33 22 -2 3 19 9 22 53 22 l50 0 3 -57 c3
-56 2 -58 -23 -58 -23 0 -24 -2 -15 -20 11 -21 19 -21 80 2 l25 10 -23 9 c-21
8 -23 14 -20 61 l3 53 45 6 c55 8 73 -4 65 -43 -8 -33 1 -35 35 -7 24 20 24
20 3 14 -33 -9 -28 12 7 30 36 19 44 19 36 0 -7 -19 -7 -19 56 10 29 14 58 25
65 25 7 0 29 11 49 25 44 30 77 32 103 6 11 -11 27 -21 38 -23 23 -4 31 -84
11 -110 -14 -18 -75 -27 -96 -14 -7 4 -15 6 -16 5 -6 -8 -63 -95 -70 -106 -5
-9 -2 -11 8 -7 12 5 16 -1 16 -22 l1 -29 14 33 c14 32 34 39 97 34 9 -1 36 18
59 41 37 37 43 48 46 94 2 43 0 51 -12 47 -28 -11 -15 16 16 32 l31 16 -7 -63
-7 -62 26 19 c28 21 36 64 11 64 -24 0 -17 14 15 33 l30 18 1 -43 1 -43 12 45
c11 41 15 45 52 52 26 6 43 16 49 30 6 12 20 28 32 36 20 13 24 12 45 -10 19
-20 28 -23 52 -17 41 11 46 5 40 -49 -7 -52 -32 -82 -70 -82 -18 0 -24 6 -25
23 -1 20 -2 20 -12 -5 -15 -39 -30 -35 -25 7 3 23 0 35 -8 35 -7 0 -14 6 -17
13 -2 6 -8 -6 -11 -28 -9 -54 -19 -69 -45 -73 -25 -4 -25 -6 -8 -33 11 -19 8
-24 -29 -57 -30 -26 -44 -48 -48 -74 -7 -39 -29 -58 -64 -58 -11 0 -25 -7 -32
-15 -16 -19 -9 -19 37 0 55 23 103 63 103 86 0 11 -4 17 -10 14 -18 -11 -11
17 8 31 28 21 35 16 29 -21 -5 -32 -4 -34 13 -25 25 14 39 36 17 27 -28 -11
-19 10 15 34 l31 23 -6 -25 c-6 -23 -6 -23 14 4 12 15 26 27 32 28 14 0 127
130 141 160 7 15 6 23 -4 29 -12 7 -11 12 4 29 27 30 36 26 29 -14 -7 -41 -3
-43 23 -13 17 19 17 21 2 15 -25 -9 -22 6 7 33 23 22 25 22 26 4 0 -17 1 -17
9 2 5 12 22 26 38 32 16 5 71 39 123 75 105 72 289 173 352 193 52 16 73 17
97 4z m-460 -75 c0 -53 -3 -66 -19 -75 -33 -17 -49 -12 -54 18 -3 22 -4 20 -6
-10 0 -21 -6 -38 -12 -38 -7 0 -10 17 -7 45 2 25 2 45 1 45 -13 0 -33 -39 -33
-66 0 -19 -4 -34 -10 -34 -5 0 -10 18 -10 41 0 24 -4 38 -10 34 -19 -12 -10
22 11 41 15 14 22 15 28 6 5 -9 12 -7 26 8 10 11 22 17 26 14 5 -3 9 0 9 6 0
9 32 28 53 29 4 1 7 -28 7 -64z m-180 -65 c0 -63 -13 -80 -59 -80 -28 0 -32
11 -25 74 6 52 9 57 38 65 17 4 34 6 39 4 4 -2 7 -31 7 -63z m-95 -22 c-9 -78
-25 -100 -25 -35 0 37 -3 45 -15 41 -20 -8 -8 25 14 43 29 22 33 14 26 -49z
m-67 -15 l-3 -67 -39 -9 c-48 -12 -53 -5 -46 69 4 51 8 59 30 65 59 17 61 15
58 -58z m-108 -28 c0 -37 -4 -65 -10 -65 -5 0 -10 20 -10 45 0 35 -3 43 -15
39 -21 -8 -19 16 3 32 29 22 32 17 32 -51z m-64 18 c-3 -21 -6 -50 -6 -65 0
-16 -4 -28 -10 -28 -5 0 -10 20 -10 45 0 35 -3 43 -15 39 -23 -9 -18 13 7 30
34 24 41 20 34 -21z m-76 -33 c0 -67 -15 -84 -73 -78 -29 3 -32 6 -35 42 -7
78 5 92 76 95 l32 1 0 -60z m-1436 44 c12 -5 16 -21 16 -71 l0 -65 -42 7 c-24
4 -46 9 -50 12 -10 5 -11 107 -1 116 8 9 56 9 77 1z m1304 -6 c16 -16 15 -103
0 -115 -7 -6 -31 -14 -52 -17 -46 -9 -56 1 -56 60 0 49 16 71 55 77 17 2 32 5
36 6 3 0 10 -4 17 -11z m-1208 -74 c0 -48 -3 -65 -12 -62 -7 3 -14 25 -16 51
-2 35 -6 45 -18 40 -20 -7 -18 14 4 26 36 21 42 13 42 -55z m108 57 c9 -5 12
-26 10 -67 l-3 -59 -45 3 c-24 2 -45 4 -47 6 -7 7 -15 97 -10 110 7 17 72 22
95 7z m902 -61 c0 -56 -3 -70 -15 -70 -11 0 -15 12 -15 46 0 37 -3 45 -15 40
-26 -10 -16 18 13 36 15 9 28 17 30 17 1 1 2 -30 2 -69z m80 5 c0 -51 -3 -65
-15 -65 -11 0 -15 12 -15 45 0 35 -3 43 -15 39 -23 -9 -18 13 7 30 12 9 26 16
30 16 5 0 8 -29 8 -65z m-845 -15 l0 -65 -40 2 c-63 4 -65 7 -65 73 l0 61 53
-3 52 -3 0 -65z m685 5 c0 -60 -2 -65 -24 -71 -13 -3 -37 -4 -52 -2 -27 3 -29
6 -32 57 -4 76 -1 81 58 81 l50 0 0 -65z m-600 -10 c0 -51 -3 -65 -15 -65 -11
0 -15 12 -15 46 0 37 -3 45 -15 40 -24 -9 -17 20 8 32 36 17 37 15 37 -53z
m125 0 l0 -60 -49 -3 c-56 -4 -66 5 -66 60 0 63 6 69 64 66 l51 -3 0 -60z m83
-2 c-2 -42 -8 -68 -15 -71 -9 -2 -13 11 -13 47 0 41 -3 49 -15 45 -24 -10 -18
22 8 34 36 18 38 15 35 -55z m130 9 c4 -62 -8 -82 -50 -82 -51 0 -68 16 -68
65 0 70 5 76 64 73 l51 -3 3 -53z m127 -7 l0 -60 -52 -3 -53 -3 0 66 0 66 53
-3 52 -3 0 -60z m-1052 -167 c6 -50 3 -68 -9 -55 -3 3 -8 23 -11 45 -4 29 -9
39 -19 35 -8 -3 -14 -1 -14 4 0 14 11 23 30 23 13 0 19 -12 23 -52z m98 42
c15 -9 19 -22 19 -67 l0 -56 -41 6 c-50 7 -59 18 -59 80 0 46 1 47 31 47 17 0
39 -5 50 -10z m-684 -32 c6 -5 15 -23 18 -40 6 -23 9 -27 16 -17 7 9 8 4 3
-16 -4 -23 -3 -26 5 -15 7 9 11 10 11 3 0 -29 -53 -26 -64 4 -5 13 -4 14 9 3
9 -7 18 -10 21 -8 8 9 -24 78 -35 78 -6 0 -11 -2 -11 -4 0 -2 -3 -12 -7 -22
-4 -12 -3 -15 5 -10 7 4 12 3 12 -3 0 -5 -4 -12 -9 -15 -13 -8 -21 18 -14 46
3 16 2 19 -5 10 -7 -11 -10 -11 -16 3 -3 9 -11 13 -17 9 -8 -4 -9 -3 -5 4 7
12 63 6 83 -10z m773 -22 c0 -24 3 -51 6 -60 4 -11 1 -16 -10 -16 -12 0 -16
10 -16 46 0 37 -3 45 -15 40 -9 -3 -15 0 -15 9 0 12 14 19 43 24 4 0 7 -19 7
-43z m110 27 c5 -4 10 -30 12 -58 3 -50 3 -50 -29 -53 -57 -6 -73 11 -73 75
l0 56 41 -6 c23 -3 45 -9 49 -14z m90 -63 c0 -71 -16 -80 -26 -14 -5 33 -10
44 -20 40 -8 -3 -14 1 -14 9 0 12 17 21 48 24 8 1 12 -17 12 -59z m121 33 c5
-15 9 -41 7 -57 -3 -30 -5 -31 -53 -31 l-50 0 -3 58 -3 57 46 0 c40 0 47 -3
56 -27z m-1007 -28 c11 -30 6 -41 -7 -15 -7 14 -23 26 -35 28 -12 2 -22 10
-22 18 0 13 4 13 29 0 16 -9 31 -23 35 -31z m-148 -3 c-4 -3 -14 2 -24 12 -16
18 -16 18 6 6 13 -6 21 -14 18 -18z m204 -47 c7 -25 15 -44 17 -41 3 2 0 21
-6 42 -6 21 -9 39 -7 41 1 2 17 -2 34 -8 26 -9 34 -19 46 -62 8 -28 14 -53 12
-54 -6 -6 -66 19 -66 28 0 4 -6 6 -13 3 -9 -3 -18 9 -26 36 -6 22 -16 40 -21
40 -6 0 -10 5 -10 10 0 6 6 10 14 10 7 0 19 -20 26 -45z m-37 -15 c6 -24 -11
-26 -39 -4 -18 15 -18 15 4 9 13 -4 22 -2 22 4 0 18 7 12 13 -9z m-152 -17
c13 -16 12 -17 -3 -4 -10 7 -18 15 -18 17 0 8 8 3 21 -13z m419 -25 c6 -24 13
-49 15 -55 2 -7 0 -13 -5 -13 -5 0 -14 18 -20 39 -5 21 -18 42 -27 46 -15 5
-15 7 -3 15 24 16 29 12 40 -32z m83 17 c14 -13 34 -92 25 -99 -1 -2 -18 -1
-36 1 -35 6 -43 17 -57 81 -6 31 -5 32 23 32 17 0 37 -7 45 -15z m84 -60 c11
-63 -1 -74 -17 -15 -7 27 -16 40 -28 40 -15 1 -15 2 2 15 11 8 23 15 26 15 4
0 11 -25 17 -55z m86 33 c10 -8 17 -30 19 -58 3 -44 2 -45 -26 -43 -40 3 -56
22 -63 72 -5 40 -5 41 24 41 16 0 37 -6 46 -12z m-623 -10 c0 -10 2 -10 8 -1
7 10 12 10 25 0 16 -11 16 -13 -5 -26 -22 -13 -22 -13 -8 4 14 17 13 18 -2 12
-9 -3 -22 1 -28 9 -9 10 -9 14 -1 14 6 0 11 -6 11 -12z m703 -5 c11 -20 17
-103 8 -103 -6 0 -14 18 -17 40 -4 24 -12 40 -20 40 -17 0 -18 17 -1 23 18 8
25 8 30 0z m109 -12 c4 -4 11 -28 14 -54 l7 -47 -35 0 c-19 0 -41 6 -50 13
-17 13 -32 89 -21 101 9 8 74 -2 85 -13z m-702 -34 c0 15 36 5 52 -15 11 -13
10 -14 -9 -4 -27 15 -43 15 -43 1 0 -5 4 -8 9 -4 5 3 12 -4 16 -15 7 -23 32
-50 46 -50 6 0 6 7 -1 19 -13 25 -13 40 1 21 8 -12 9 -10 4 9 -7 22 -5 23 21
17 16 -4 30 -8 30 -9 13 -16 44 -90 40 -94 -13 -14 -54 10 -69 39 -16 32 -16
32 -10 5 l6 -29 -40 21 c-25 12 -45 32 -53 50 -7 17 -16 31 -21 31 -5 0 -9 8
-9 18 1 15 2 15 15 -2 8 -11 15 -15 15 -9z m-16 -44 c3 -7 2 -13 -2 -13 -5 0
-16 6 -26 13 -16 12 -16 13 3 13 11 0 23 -6 25 -13z m217 -49 c11 -26 17 -49
15 -52 -3 -3 -10 8 -16 24 -6 16 -18 34 -26 41 -9 6 -13 16 -9 22 10 18 15 13
36 -35z m46 30 c13 -4 29 -23 41 -52 11 -26 19 -48 17 -50 -1 -2 -17 1 -35 5
-27 7 -36 17 -51 56 -20 49 -17 53 28 41z m119 -38 c13 -13 36 -77 30 -84 -3
-2 -19 -1 -36 3 -25 6 -35 16 -51 52 -10 24 -19 47 -19 50 0 8 65 -9 76 -21z
m1808 -18 c-11 -37 -35 -80 -41 -74 -3 3 -1 18 5 35 9 26 8 29 -6 25 -11 -4
-9 1 7 15 30 27 44 27 35 -1z m-2179 -6 c-3 -3 -11 0 -18 7 -9 10 -8 11 6 5
10 -3 15 -9 12 -12z m449 -29 c20 -58 11 -71 -10 -15 -9 23 -19 41 -23 40 -16
-2 -22 3 -16 12 14 22 34 7 49 -37z m84 23 c7 -7 15 -29 19 -49 6 -40 -3 -46
-50 -28 -23 9 -47 54 -47 87 0 16 58 8 78 -10z m-482 -14 c9 -5 8 -10 -2 -19
-8 -8 -15 -9 -19 -3 -3 6 0 10 7 10 9 0 9 3 -2 10 -8 5 -10 10 -5 10 6 0 15
-4 21 -8z m558 -19 c4 -16 9 -36 12 -45 3 -10 1 -18 -5 -18 -5 0 -12 14 -16
31 -4 17 -13 33 -21 36 -20 8 -17 23 5 23 12 0 21 -10 25 -27z m1331 -5 c-13
-60 -22 -68 -71 -68 -38 0 -45 3 -40 18 2 9 8 28 12 42 9 33 21 40 67 40 38 0
39 0 32 -32z m-119 -25 c-14 -53 -40 -74 -30 -24 4 20 2 31 -5 31 -19 0 -12
16 12 28 35 17 36 15 23 -35z m-70 -5 c-8 -50 -18 -58 -70 -58 l-39 0 7 42 c9
56 11 58 63 58 l46 0 -7 -42z m-116 -2 c0 -46 -23 -68 -69 -64 -34 3 -36 5
-35 36 3 55 9 62 59 62 45 0 45 0 45 -34z m-430 -26 c0 -27 -4 -50 -10 -50 -5
0 -10 9 -10 19 0 31 -11 51 -29 51 -14 1 -13 3 3 15 36 27 46 19 46 -35z m118
12 c4 -40 -12 -62 -43 -62 -46 0 -55 10 -55 57 l0 44 48 -3 c45 -3 47 -4 50
-36z m-1263 18 c3 -5 2 -10 -4 -10 -5 0 -13 5 -16 10 -3 6 -2 10 4 10 5 0 13
-4 16 -10z m180 -22 c7 -7 3 -8 -12 -4 -12 4 -24 2 -28 -4 -9 -15 -25 -2 -18
16 6 15 39 11 58 -8z m-131 -5 c4 -11 1 -11 -14 -3 -24 13 -25 17 -5 17 8 0
16 -6 19 -14z m2336 -59 c-54 -55 -83 -73 -73 -47 6 16 5 16 -10 4 -9 -7 -17
-19 -17 -26 0 -12 -59 -43 -95 -50 -11 -2 -21 -4 -22 -4 -2 -1 -6 -1 -10 -2
-5 0 -15 -7 -24 -15 -9 -8 -27 -17 -40 -18 -13 -2 -37 -9 -53 -15 -16 -6 -31
-9 -34 -6 -3 2 -12 -1 -20 -8 -11 -9 -11 -4 2 16 24 36 7 35 -26 -3 -26 -30
-87 -45 -73 -17 4 6 0 4 -8 -5 -8 -10 -17 -18 -21 -18 -4 0 -2 8 3 18 5 9 8
21 8 27 -2 11 62 35 103 40 14 1 45 8 70 15 25 7 52 14 60 15 8 0 25 7 38 14
12 6 28 11 35 10 23 -4 207 81 227 106 7 8 15 15 18 15 4 0 -14 -21 -38 -46z
m-460 -30 c-16 -42 -30 -64 -41 -64 -6 0 -6 7 1 19 13 25 13 44 0 36 -5 -3
-10 0 -10 7 0 7 -9 -6 -20 -29 -22 -51 -34 -56 -25 -12 5 22 4 29 -4 25 -6 -4
-11 -3 -11 2 0 12 49 34 61 27 5 -4 17 -1 26 4 28 16 33 13 23 -15z m-1785
-12 c-3 -3 -11 0 -18 7 -9 10 -8 11 6 5 10 -3 15 -9 12 -12z m1665 9 c0 -19
-21 -66 -33 -73 -17 -11 -77 -10 -77 1 0 19 21 66 33 73 17 11 77 10 77 -1z
m-1084 -43 c8 -24 9 -38 3 -38 -6 0 -15 14 -20 30 -6 17 -18 30 -26 30 -8 0
-11 5 -8 11 13 20 38 4 51 -33z m59 -10 c9 -45 -2 -50 -16 -8 -6 17 -17 30
-25 30 -20 0 -17 18 4 23 23 5 29 -2 37 -45z m850 9 c-9 -42 -13 -45 -60 -49
-35 -3 -40 -1 -37 17 8 59 11 64 50 67 50 4 54 1 47 -35z m63 3 c-6 -22 -17
-40 -24 -40 -10 0 -11 6 -4 26 9 22 8 25 -5 20 -8 -3 -15 -1 -15 5 0 8 33 27
51 28 4 1 2 -17 -3 -39z m-814 8 c12 -48 8 -58 -28 -58 -37 0 -50 11 -60 53
-6 26 -5 27 38 27 37 0 45 -3 50 -22z m88 10 c9 -7 18 -26 20 -43 3 -27 0 -30
-30 -33 -43 -4 -62 12 -62 54 0 31 3 34 28 34 16 0 35 -6 44 -12z m-728 -19
c5 -4 -4 -6 -18 -5 -15 2 -33 9 -39 15 -9 10 -5 11 18 5 17 -3 34 -10 39 -15z
m806 4 c0 -10 3 -28 6 -40 4 -14 2 -23 -5 -23 -6 0 -14 13 -17 29 -5 22 -11
28 -23 24 -12 -3 -11 -1 3 11 26 21 36 20 36 -1z m70 -28 c0 -25 -4 -45 -10
-45 -5 0 -10 14 -10 30 0 20 -5 30 -15 30 -34 0 -12 23 28 29 4 0 7 -19 7 -44z
m98 33 c7 -7 12 -21 12 -33 0 -28 -19 -45 -50 -45 -14 0 -31 5 -38 12 -13 13
-16 60 -5 71 11 12 68 8 81 -5z m63 -71 c-8 -8 -11 -1 -11 22 0 25 -4 32 -15
27 -8 -3 -15 -1 -15 5 0 5 10 13 23 18 20 8 22 5 25 -27 2 -19 -1 -39 -7 -45z
m117 46 c-3 -35 -6 -38 -38 -43 -47 -8 -60 -2 -60 25 0 46 10 55 57 55 l44 0
-3 -37z m68 21 c-3 -9 -6 -27 -6 -40 0 -14 -6 -24 -14 -24 -9 0 -12 8 -8 25 3
19 0 25 -14 25 -18 1 -18 1 0 15 26 20 50 19 42 -1z m64 7 c0 -5 -3 -23 -6
-40 -8 -40 -28 -41 -22 -1 3 23 1 30 -9 26 -7 -3 -13 -1 -13 3 0 10 17 19 38
20 6 1 12 -3 12 -8z m-1224 -34 c4 -4 -2 -7 -14 -7 -11 0 -23 4 -26 8 -6 10
30 9 40 -1z m-91 -7 c3 -6 -1 -7 -9 -4 -18 7 -21 14 -7 14 6 0 13 -4 16 -10z
m90 -30 c3 -5 1 -10 -4 -10 -6 0 -11 5 -11 10 0 6 2 10 4 10 3 0 8 -4 11 -10z
m1555 -21 c0 -25 -41 -67 -70 -71 -33 -5 -35 -1 -18 37 6 15 24 29 42 34 43
13 46 13 46 0z m350 7 c0 -2 -12 -11 -27 -20 l-28 -17 24 20 c23 21 31 25 31
17z m-1506 -53 l17 -38 -30 33 c-35 37 -37 42 -18 42 7 0 21 -17 31 -37z m62
27 c11 0 34 -42 34 -60 0 -6 -6 -10 -14 -10 -8 0 -12 7 -10 18 6 26 -10 44
-37 40 l-24 -3 23 -22 c13 -14 17 -23 9 -23 -16 0 -49 54 -39 64 3 4 16 5 27
2 11 -3 25 -6 31 -6z m944 -5 c0 -34 -31 -65 -66 -65 -39 0 -39 1 -19 40 10
18 25 30 42 33 16 2 31 5 36 6 4 0 7 -6 7 -14z m60 10 c0 -15 -32 -65 -41 -65
-6 0 -6 7 1 20 8 15 8 20 -2 20 -8 1 -5 7 6 15 20 15 36 19 36 10z m-898 -24
c4 -3 10 -19 14 -35 7 -28 6 -28 -27 -21 -37 8 -59 29 -59 58 0 16 5 18 33 12
17 -4 35 -10 39 -14z m1256 -5 c-19 -16 -36 -22 -53 -18 -14 2 -24 6 -22 8 3
4 81 30 97 33 3 1 -7 -10 -22 -23z m-1188 -25 c10 -37 -2 -41 -18 -5 -7 14
-17 22 -22 19 -6 -3 -10 -2 -10 4 0 8 30 21 38 16 1 -1 7 -16 12 -34z m620 35
c0 -1 -5 -17 -11 -35 -10 -28 -15 -31 -51 -31 -36 0 -39 2 -32 23 11 36 25 47
60 47 19 0 34 -2 34 -4z m48 -26 c-13 -40 -33 -52 -24 -16 4 18 3 25 -4 21 -5
-3 -10 -2 -10 4 0 10 16 19 37 20 9 1 9 -7 1 -29z m-613 -11 c9 -39 -1 -50
-14 -15 -6 14 -15 26 -21 26 -5 0 -10 5 -10 10 0 6 9 10 19 10 14 0 21 -9 26
-31z m93 -6 c3 -32 2 -33 -32 -33 -38 0 -40 2 -50 43 -7 28 -6 28 36 25 40 -3
43 -5 46 -35z m62 -4 c0 -16 -4 -29 -10 -29 -5 0 -10 12 -10 26 0 19 -4 25
-15 20 -8 -3 -15 -1 -15 4 0 9 31 19 43 13 4 -2 7 -17 7 -34z m90 5 c0 -35 -1
-35 -37 -32 -35 3 -38 6 -41 36 -3 31 -2 32 37 32 40 0 41 -1 41 -36z m60 1
c0 -19 -4 -35 -10 -35 -5 0 -10 12 -10 26 0 14 -4 23 -10 19 -5 -3 -10 -2 -10
4 0 5 8 12 18 14 9 3 18 5 20 6 1 0 2 -15 2 -34z m100 12 c0 -32 -18 -47 -57
-47 -30 0 -33 3 -33 28 0 37 6 42 52 42 33 0 38 -3 38 -23z m55 -4 c-9 -40
-29 -56 -23 -20 4 21 2 27 -8 23 -8 -3 -14 -1 -14 3 0 10 17 19 39 20 9 1 11
-7 6 -26z m576 -6 c-6 -8 -7 -18 -3 -22 4 -5 1 -5 -5 -1 -7 4 -13 2 -13 -3 0
-6 -7 -11 -16 -11 -14 0 -14 3 -4 15 7 8 9 15 4 15 -15 0 20 20 35 20 10 0 11
-3 2 -13z m-61 -22 c-7 -8 -9 -15 -4 -15 11 0 -18 -20 -30 -20 -4 0 -5 7 -2
16 4 10 2 14 -6 11 -7 -2 -12 -9 -11 -14 1 -5 -5 -10 -12 -10 -11 0 -12 4 -4
14 15 17 -1 17 -27 -2 -12 -8 -24 -12 -27 -9 -3 3 -8 1 -11 -4 -4 -6 4 -9 19
-8 13 2 22 -1 19 -6 -3 -5 -16 -8 -27 -6 -12 1 -29 -2 -37 -6 -12 -7 -13 -6
-2 5 24 25 12 32 -15 8 -25 -22 -26 -22 -9 -1 16 19 17 22 3 22 -23 0 -52 -31
-37 -40 7 -4 -3 -9 -24 -12 -35 -4 -47 4 -26 17 6 4 8 11 5 16 -4 5 0 9 7 10
7 0 22 3 33 6 11 3 36 7 55 9 37 4 56 8 80 17 24 9 39 12 71 14 26 2 29 0 19
-12z m-1395 -4 c6 -1 4 -5 -3 -10 -8 -4 -13 -12 -12 -17 0 -5 -7 -11 -17 -13
-10 -2 -15 0 -10 5 4 4 0 15 -8 24 -14 16 -13 17 12 15 16 -1 33 -3 38 -4z
m90 -20 c-8 -13 33 -44 49 -38 9 4 18 2 21 -3 7 -12 -38 -14 -49 -2 -4 4 -11
7 -15 7 -3 0 -18 9 -33 21 l-27 21 30 1 c16 0 27 -3 24 -7z m40 -11 c3 -5 12
-7 20 -3 9 3 22 0 30 -7 10 -9 15 -9 15 -1 0 6 10 11 23 10 l22 0 -22 -9 c-13
-5 -23 -12 -23 -15 0 -4 4 -4 9 -1 5 3 15 -2 22 -12 13 -15 12 -16 -3 -3 -15
11 -18 11 -18 0 0 -8 -8 -4 -19 10 -10 14 -25 22 -33 19 -7 -3 -22 0 -33 8
-10 8 -14 14 -8 14 7 0 14 -4 18 -10z m969 -25 c-9 -14 -21 -25 -27 -25 -5 0
-2 9 8 20 18 19 17 20 -2 20 -24 0 -48 -25 -38 -40 3 -5 -1 -10 -9 -10 -22 0
-20 12 4 38 13 13 33 22 51 22 29 0 29 0 13 -25z m301 15 c-3 -5 -12 -10 -18
-10 -7 0 -6 4 3 10 19 12 23 12 15 0z m-1358 -6 c-3 -3 -12 -4 -19 -1 -8 3 -5
6 6 6 11 1 17 -2 13 -5z m245 -25 c1 5 11 4 21 -4 15 -11 12 -13 -25 -13 -24
0 -37 2 -31 5 10 3 10 10 2 26 -10 22 -10 22 10 -1 10 -12 21 -18 23 -13z m52
15 c9 -8 16 -11 16 -5 0 18 29 12 40 -8 17 -32 11 -38 -10 -11 l-20 25 -6 -22
c-4 -13 -11 -23 -17 -23 -6 0 -7 3 -4 6 3 4 2 15 -4 26 -8 14 -18 19 -35 15
-13 -2 -24 0 -24 4 0 15 48 10 64 -7z m636 8 c0 -23 -34 -52 -61 -52 -26 0
-30 3 -25 23 l6 22 -11 -22 c-7 -13 -16 -23 -21 -23 -5 0 -6 5 -2 11 3 6 0 15
-7 20 -12 7 -11 9 1 10 51 5 61 7 67 13 9 9 53 8 53 -2z m50 1 c-1 -10 -26
-43 -32 -43 -10 0 -3 35 7 42 13 10 25 10 25 1z m-550 -12 c0 -5 3 -16 6 -25
5 -13 -1 -16 -29 -16 -23 0 -37 6 -41 16 -11 29 -6 34 29 34 19 0 35 -4 35 -9z
m78 0 c23 -14 10 -46 -20 -49 -28 -3 -55 28 -43 48 8 12 45 13 63 1z m142 -21
c0 -28 -3 -30 -35 -30 -30 0 -35 3 -35 23 0 31 7 37 42 37 24 0 28 -4 28 -30z
m138 8 c-2 -14 -14 -26 -31 -32 -33 -12 -49 0 -41 32 5 17 14 22 41 22 30 0
34 -3 31 -22z m-218 -13 c0 -14 -4 -25 -10 -25 -5 0 -10 9 -10 21 0 11 -4 17
-10 14 -5 -3 -10 -1 -10 4 0 6 9 11 20 11 15 0 20 -7 20 -25z m132 0 c-2 -14
-9 -25 -14 -25 -6 0 -8 9 -5 20 3 10 0 21 -7 24 -6 2 -1 5 10 5 17 1 20 -4 16
-24z m542 0 c-11 -8 -28 -15 -38 -15 -19 0 -19 1 -2 13 10 7 27 14 38 14 20 2
20 1 2 -12z m-77 -20 c-11 -10 -25 -13 -42 -9 -14 3 -25 2 -25 -4 0 -16 -35
-20 -55 -6 -21 16 -18 16 67 17 20 0 35 4 32 8 -2 4 4 9 13 11 25 6 28 1 10
-17z m-996 -28 c-13 -13 -26 -3 -16 12 3 6 11 8 17 5 6 -4 6 -10 -1 -17z m35
4 c-4 -5 -1 -12 4 -14 6 -3 5 -4 -2 -3 -15 3 -23 26 -8 26 6 0 9 -4 6 -9z m38
0 c3 -5 19 -7 35 -5 19 2 31 -2 35 -11 6 -17 -19 -21 -29 -5 -9 15 -27 12 -19
-2 4 -7 -3 -4 -17 7 -13 11 -26 21 -28 22 -2 2 1 3 7 3 6 0 13 -4 16 -9z m716
-6 c-14 -16 -25 -21 -16 -6 4 5 0 12 -6 14 -7 3 -2 6 11 6 20 1 21 -1 11 -14z
m57 0 c0 -9 -9 -14 -23 -13 -13 1 -20 7 -17 15 7 18 40 16 40 -2z m-667 -5 c0
-5 -7 -7 -15 -4 -8 4 -15 8 -15 10 0 2 7 4 15 4 8 0 15 -4 15 -10z m33 0 c-13
-5 -23 -11 -23 -13 0 -8 45 -5 51 4 4 7 8 5 12 -5 5 -12 -3 -15 -43 -14 -46 0
-47 1 -32 18 10 10 26 18 37 19 18 0 18 -1 -2 -9z m443 -6 c-3 -8 -2 -12 3 -9
5 3 12 1 15 -4 3 -5 -11 -9 -32 -8 -20 0 -29 2 -19 4 21 5 23 23 2 23 -9 0
-18 -7 -22 -16 -5 -13 -7 -13 -14 -2 -7 10 -9 10 -9 1 0 -7 -4 -13 -8 -13 -5
0 -9 7 -9 16 0 10 7 14 19 11 10 -3 21 -1 24 4 3 5 17 9 31 9 19 0 24 -4 19
-16z m87 0 c-2 -7 -13 -12 -23 -11 -10 1 -16 5 -13 11 4 5 -3 7 -15 4 -12 -4
-22 -2 -22 3 0 6 18 9 39 8 26 -2 37 -7 34 -15z m-452 -6 c0 -10 2 -10 6 0 2
6 18 12 34 12 22 0 29 -5 29 -20 0 -21 -33 -29 -45 -10 -4 6 -9 8 -13 6 -4 -2
-16 2 -27 10 -16 12 -17 14 -2 14 9 0 17 -6 18 -12z m139 -9 c0 -16 -5 -20
-27 -17 -17 2 -29 10 -31 21 -3 13 3 17 27 17 25 0 31 -4 31 -21z m37 -11 c-3
-7 -5 -2 -5 12 0 14 2 19 5 13 2 -7 2 -19 0 -25z m73 12 c-11 -21 -44 -27 -55
-10 -11 17 5 30 36 30 27 0 29 -2 19 -20z m357 4 c-3 -3 -12 -4 -19 -1 -8 3
-5 6 6 6 11 1 17 -2 13 -5z m-40 -10 c-3 -3 -12 -4 -19 -1 -8 3 -5 6 6 6 11 1
17 -2 13 -5z m-60 -10 c-3 -3 -12 -4 -19 -1 -8 3 -5 6 6 6 11 1 17 -2 13 -5z
m-57 -8 c0 -2 -9 -6 -20 -9 -11 -3 -18 -1 -14 4 5 9 34 13 34 5z m-420 -17 c0
-5 -14 -7 -30 -6 -43 5 -45 13 -5 14 19 0 35 -3 35 -8z m70 7 c0 -2 -7 -6 -15
-10 -8 -3 -15 -1 -15 4 0 6 7 10 15 10 8 0 15 -2 15 -4z m100 -6 c0 -5 -2 -10
-4 -10 -3 0 -8 5 -11 10 -3 6 -1 10 4 10 6 0 11 -4 11 -10z m104 -2 c-3 -4 -9
-8 -15 -8 -5 0 -9 4 -9 8 0 5 7 9 15 9 8 0 12 -4 9 -9z m53 6 c-3 -3 -12 -4
-19 -1 -8 3 -5 6 6 6 11 1 17 -2 13 -5z"/>
<path d="M2850 4470 l-35 -6 33 -5 c18 -3 35 -2 38 3 9 13 3 15 -36 8z"/>
<path d="M2522 4350 c0 -14 2 -19 5 -12 2 6 2 18 0 25 -3 6 -5 1 -5 -13z"/>
<path d="M2612 4350 c7 -11 16 -20 20 -20 5 0 3 9 -4 20 -7 11 -16 20 -20 20
-5 0 -3 -9 4 -20z"/>
<path d="M2140 4245 c-19 -20 -19 -21 -1 -22 10 -1 29 9 41 22 l22 24 -21 -2
c-12 -1 -30 -11 -41 -22z m30 11 c0 -2 -8 -10 -17 -17 -16 -13 -17 -12 -4 4
13 16 21 21 21 13z"/>
<path d="M2706 4244 c-19 -18 -21 -28 -4 -18 7 5 9 2 6 -7 -4 -10 1 -15 12
-16 10 -1 21 5 24 13 3 8 0 13 -7 11 -7 -1 -11 6 -11 16 2 21 0 21 -20 1z"/>
<path d="M2740 4251 c0 -6 5 -13 11 -16 6 -4 8 -13 5 -20 -3 -8 2 -11 14 -8
18 5 18 7 3 29 -15 24 -33 32 -33 15z"/>
<path d="M2830 4246 c0 -2 8 -10 18 -17 15 -13 16 -12 3 4 -13 16 -21 21 -21
13z"/>
<path d="M3258 4234 c18 -12 27 -13 35 -5 6 6 7 11 2 12 -6 0 -21 3 -35 5
l-25 5 23 -17z"/>
<path d="M3105 4172 c-3 -3 7 -18 22 -34 21 -22 29 -25 40 -16 12 10 11 15 -9
30 -18 14 -19 17 -4 11 12 -4 17 -3 13 4 -7 11 -52 15 -62 5z m35 -27 c13 -14
21 -25 18 -25 -2 0 -15 11 -28 25 -13 14 -21 25 -18 25 2 0 15 -11 28 -25z"/>
<path d="M3055 4120 c10 -11 20 -20 23 -20 3 0 -3 9 -13 20 -10 11 -20 20 -23
20 -3 0 3 -9 13 -20z"/>
<path d="M2895 4118 c-6 -16 -28 -19 -41 -5 -12 12 -21 8 -27 -13 -3 -11 -1
-17 4 -14 5 3 12 -2 15 -10 9 -24 37 -20 29 3 -4 15 -1 19 12 17 9 -2 19 -8
21 -14 4 -13 32 -17 32 -4 0 4 -9 18 -20 32 -16 21 -20 22 -25 8z"/>
<path d="M2724 4083 c-7 -26 -7 -26 -15 -5 -5 12 -16 22 -25 22 -11 0 -14 -5
-10 -16 3 -9 6 -22 6 -30 0 -26 39 -16 46 13 7 26 7 26 15 5 5 -12 15 -22 24
-22 18 0 18 1 5 34 -12 34 -38 33 -46 -1z"/>
<path d="M2578 4095 c-10 -11 5 -55 19 -55 10 0 13 9 11 27 -3 25 -18 40 -30
28z"/>
<path d="M2338 4231 c3 -9 1 -12 -6 -7 -8 5 -10 2 -6 -8 9 -23 19 -20 32 8 9
21 9 24 -7 23 -12 -1 -17 -6 -13 -16z"/>
<path d="M2541 4213 l1 -28 8 25 c8 24 8 24 9 3 1 -31 21 -29 21 2 0 18 -5 25
-20 25 -15 0 -20 -6 -19 -27z"/>
<path d="M3466 4174 c-5 -13 6 -19 27 -15 5 1 6 -3 2 -8 -3 -6 3 -15 14 -20
15 -8 20 -7 23 7 6 23 -57 59 -66 36z"/>
<path d="M3450 4091 c19 -16 37 -27 40 -25 6 6 -52 53 -65 53 -5 0 6 -13 25
-28z"/>
<path d="M3410 4036 c0 -2 8 -10 18 -17 15 -13 16 -12 3 4 -13 16 -21 21 -21
13z"/>
<path d="M3280 4006 c0 -2 8 -10 18 -17 15 -13 16 -12 3 4 -13 16 -21 21 -21
13z"/>
<path d="M1875 4140 l-25 -26 22 -1 c21 -2 68 32 68 48 0 17 -42 3 -65 -21z
m35 17 c0 -2 -10 -12 -22 -23 l-23 -19 19 23 c18 21 26 27 26 19z"/>
<path d="M1969 4143 c-1 -2 -2 -6 -3 -10 -1 -5 -5 -14 -10 -21 -11 -17 -7 -20
36 -27 30 -5 38 -2 52 19 9 14 16 28 16 31 0 8 -38 0 -47 -10 -5 -4 -2 -5 5
-1 11 7 11 4 1 -13 -8 -12 -16 -16 -20 -9 -4 7 -8 6 -12 -3 -3 -8 -6 -9 -6 -3
-1 6 6 17 14 24 21 17 19 29 -5 27 -11 -1 -21 -3 -21 -4z"/>
<path d="M2092 4110 c-12 -19 -7 -50 8 -50 5 0 18 12 30 28 12 15 19 22 16 15
-8 -16 4 -43 18 -43 16 0 38 47 26 55 -5 3 -16 -5 -26 -17 -11 -16 -15 -18
-10 -5 9 29 -24 34 -46 8 -10 -13 -18 -19 -18 -14 0 5 5 14 12 21 6 6 10 14 7
16 -3 3 -10 -4 -17 -14z"/>
<path d="M2355 4085 c-3 -8 -7 -22 -10 -30 -3 -10 2 -15 14 -15 13 0 20 9 23
30 5 32 -18 44 -27 15z"/>
<path d="M2417 4094 c-13 -14 -7 -54 8 -54 8 0 15 9 15 20 0 11 0 23 1 27 1
10 -16 15 -24 7z"/>
<path d="M2476 4078 c-9 -35 -8 -38 15 -38 16 0 20 5 17 27 -4 34 -24 41 -32
11z"/>
<path d="M2331 4074 c0 -11 3 -14 6 -6 3 7 2 16 -1 19 -3 4 -6 -2 -5 -13z"/>
<path d="M3650 4033 c0 -5 12 -16 26 -27 l26 -19 -17 27 c-16 25 -35 35 -35
19z"/>
<path d="M3596 3962 c-5 -9 50 -69 58 -61 2 2 -9 19 -24 37 -15 19 -30 29 -34
24z"/>
<path d="M1619 4043 l-24 -28 28 24 c25 23 32 31 24 31 -2 0 -14 -12 -28 -27z"/>
<path d="M1684 4008 c-16 -17 -23 -28 -16 -24 6 4 12 2 12 -3 0 -20 24 -11 47
17 l23 27 -4 -25 c-2 -14 -9 -24 -15 -23 -5 2 -8 -4 -5 -12 9 -24 31 -18 54
14 l21 30 -21 11 c-11 6 -20 8 -20 6 0 -3 -11 -1 -24 4 -20 7 -28 4 -52 -22z
m36 19 c0 -2 -10 -12 -22 -23 l-23 -19 19 23 c18 21 26 27 26 19z"/>
<path d="M1379 3933 l-24 -28 28 24 c25 23 32 31 24 31 -2 0 -14 -12 -28 -27z"/>
<path d="M1409 3903 l-24 -28 28 24 c25 23 32 31 24 31 -2 0 -14 -12 -28 -27z"/>
<path d="M1476 3864 c-15 -20 -25 -38 -22 -41 3 -4 6 -3 6 1 0 4 9 2 19 -4 16
-8 23 -4 41 26 29 47 16 57 -21 16 -16 -18 -29 -29 -29 -25 0 4 10 17 22 30
12 13 19 25 17 27 -3 3 -17 -11 -33 -30z"/>
<path d="M1580 3855 c-7 -9 -10 -18 -7 -21 3 -3 10 4 17 15 13 25 8 27 -10 6z"/>
<path d="M1679 3828 c-1 -2 -3 -20 -4 -40 -5 -48 15 -51 44 -6 17 29 18 34 5
41 -11 6 -20 3 -30 -10 -13 -16 -13 -16 -8 0 3 9 3 17 0 17 -3 0 -6 -1 -7 -2z"/>
<path d="M1797 3766 c-14 -31 -14 -35 0 -40 19 -8 16 -10 37 31 20 40 20 43
-2 43 -11 0 -25 -14 -35 -34z"/>
<path d="M1830 3977 c-24 -36 -33 -52 -25 -45 5 4 15 2 23 -4 12 -10 19 -7 37
16 13 16 23 23 23 15 -3 -56 18 -66 45 -20 21 35 21 41 3 41 -7 0 -21 -10 -30
-22 -10 -15 -16 -18 -15 -8 4 48 -21 55 -47 15 -9 -14 -19 -23 -22 -20 -3 3 3
14 13 25 10 11 16 22 14 25 -3 2 -11 -6 -19 -18z"/>
<path d="M3084 3958 c23 -33 19 -47 -5 -18 l-21 25 18 -32 c10 -19 21 -28 25
-22 3 6 9 10 13 10 23 -3 25 2 9 29 -9 17 -26 30 -36 30 -17 0 -17 -2 -3 -22z"/>
<path d="M2970 3955 c0 -4 7 -19 15 -35 10 -19 20 -27 30 -24 19 8 19 14 -1
42 -13 19 -44 31 -44 17z"/>
<path d="M2005 3930 c-19 -37 -19 -40 3 -40 11 0 25 14 35 35 16 34 16 35 -3
35 -11 0 -26 -12 -35 -30z"/>
<path d="M2122 3925 c-16 -35 -15 -45 6 -45 24 0 46 56 25 64 -20 8 -18 9 -31
-19z"/>
<path d="M2193 3905 c-10 -31 -9 -35 7 -35 21 0 25 4 34 43 5 22 3 27 -12 27
-13 0 -22 -11 -29 -35z"/>
<path d="M2813 3908 c13 -31 47 -52 47 -29 0 28 -21 61 -40 61 -19 0 -19 -2
-7 -32z"/>
<path d="M3815 3840 c-4 -6 -11 -8 -16 -5 -15 10 -10 -5 12 -36 20 -28 22 -29
34 -12 14 19 10 37 -6 28 -8 -6 -13 8 -10 28 2 10 -7 9 -14 -3z m27 -34 c7 4
8 2 4 -5 -9 -14 -36 3 -36 23 0 6 5 3 11 -7 6 -9 15 -14 21 -11z"/>
<path d="M3757 3794 c-10 -11 33 -59 54 -60 10 -1 19 1 19 3 0 11 -34 53 -43
53 -5 0 -2 -9 8 -20 10 -11 16 -23 13 -25 -3 -3 -14 8 -25 25 -11 17 -22 27
-26 24z"/>
<path d="M3536 3672 c-6 -10 33 -72 44 -72 18 0 18 17 -2 48 -20 32 -32 39
-42 24z"/>
<path d="M2270 3918 c0 -7 -3 -23 -6 -35 -5 -18 -2 -23 14 -23 12 0 22 9 26
23 10 37 7 47 -14 47 -11 0 -20 -6 -20 -12z"/>
<path d="M2438 3895 c-4 -31 -1 -35 19 -35 20 0 23 5 23 35 0 28 -4 35 -19 35
-14 0 -20 -9 -23 -35z"/>
<path d="M2518 3925 c-2 -3 -3 -18 0 -35 3 -22 10 -30 24 -30 16 0 19 5 14 23
-3 12 -6 28 -6 35 0 12 -22 17 -32 7z"/>
<path d="M2689 3898 c8 -37 41 -53 41 -20 0 33 -11 52 -30 52 -14 0 -16 -6
-11 -32z"/>
<path d="M3530 3895 c6 -8 8 -20 4 -26 -4 -7 -3 -9 3 -6 6 4 16 0 23 -8 7 -8
17 -12 22 -9 5 3 -3 19 -18 35 -28 29 -57 41 -34 14z"/>
<path d="M3480 3881 c0 -6 5 -13 11 -16 6 -4 8 -14 4 -23 -3 -9 -3 -13 1 -9 4
4 13 2 20 -4 9 -8 16 -5 24 12 7 12 8 19 2 15 -5 -3 -17 3 -27 14 -19 21 -35
26 -35 11z"/>
<path d="M3300 3818 c0 -26 35 -67 49 -59 11 7 10 15 -5 40 -18 31 -44 42 -44
19z"/>
<path d="M3285 3790 c9 -16 18 -30 21 -30 2 0 -2 14 -11 30 -9 17 -18 30 -21
30 -2 0 2 -13 11 -30z"/>
<path d="M3180 3795 c0 -22 34 -65 50 -65 24 0 25 4 3 41 -15 24 -53 41 -53
24z"/>
<path d="M2160 3525 c0 -19 21 -65 30 -65 7 0 20 48 20 71 0 5 -11 9 -25 9
-15 0 -25 -6 -25 -15z"/>
<path d="M1295 3200 c-7 -33 -1 -50 20 -50 20 0 30 47 15 65 -18 22 -28 18
-35 -15z"/>
<path d="M701 3103 c-1 -7 4 -34 10 -62 10 -48 11 -50 35 -39 26 12 32 39 11
57 -10 8 -17 7 -25 -1 -8 -8 -13 -2 -20 23 -6 19 -11 29 -11 22z"/>
<path d="M1936 3088 c-26 -36 -21 -58 13 -58 24 0 29 5 35 31 9 46 8 49 -13
49 -11 0 -27 -10 -35 -22z"/>
<path d="M1606 2888 c-7 -43 2 -58 35 -58 12 0 18 11 21 43 3 23 4 42 4 43 -1
1 -13 4 -27 7 -25 6 -27 4 -33 -35z"/>
<path d="M1689 2388 c5 -38 9 -43 34 -46 29 -4 32 3 21 57 -5 25 -11 31 -33
31 -26 0 -27 -2 -22 -42z"/>
<path d="M1587 2181 c-15 -26 -15 -29 -1 -35 28 -11 34 -7 34 23 0 41 -13 45
-33 12z"/>
<path d="M1370 2056 c0 -33 20 -66 40 -66 17 0 19 4 14 28 -9 40 -54 71 -54
38z"/>
<path d="M720 1918 c0 -10 4 -18 9 -18 5 0 18 -3 28 -6 15 -5 15 -3 -2 7 -11
7 -23 17 -27 23 -5 7 -8 4 -8 -6z"/>
<path d="M1923 3749 c-7 -18 -10 -36 -7 -40 11 -19 33 -7 43 22 15 43 14 49
-7 49 -11 0 -22 -12 -29 -31z"/>
<path d="M3050 3776 c0 -2 7 -19 15 -39 11 -28 19 -34 35 -30 24 6 24 6 5 43
-9 18 -24 30 -35 30 -11 0 -20 -2 -20 -4z"/>
<path d="M2052 3728 c-7 -25 -5 -35 6 -42 18 -11 30 2 38 42 6 28 4 32 -14 32
-16 0 -24 -9 -30 -32z"/>
<path d="M2921 3728 c5 -18 9 -34 9 -35 0 -2 11 -3 24 -3 23 0 24 2 13 35 -8
27 -16 35 -33 35 -21 0 -22 -3 -13 -32z"/>
<path d="M3931 3667 c-1 -10 28 -67 34 -67 2 0 3 9 2 20 -1 11 -5 20 -10 20
-4 0 -5 5 -1 12 4 6 3 8 -4 4 -5 -3 -13 0 -15 6 -3 7 -6 9 -6 5z"/>
<path d="M3770 3525 c0 -6 30 -67 36 -74 1 -1 7 0 13 3 14 9 -18 76 -36 76 -7
0 -13 -2 -13 -5z"/>
<path d="M3686 3481 c-10 -16 18 -71 36 -71 22 0 22 1 1 45 -17 35 -27 43 -37
26z"/>
<path d="M3622 3461 c-11 -7 -11 -15 2 -45 15 -35 29 -45 40 -27 5 7 -20 81
-27 81 -1 0 -8 -4 -15 -9z"/>
<path d="M3590 3435 c0 -5 5 -17 10 -25 5 -8 10 -10 10 -5 0 6 -5 17 -10 25
-5 8 -10 11 -10 5z"/>
<path d="M2140 3738 c0 -7 -3 -23 -6 -35 -5 -20 -2 -23 20 -23 14 0 26 6 26
13 0 6 3 22 6 35 5 19 2 22 -20 22 -14 0 -26 -6 -26 -12z"/>
<path d="M2774 3728 c3 -13 6 -31 6 -40 0 -11 8 -18 19 -18 26 0 30 8 24 48
-4 26 -10 32 -30 32 -21 0 -24 -4 -19 -22z"/>
<path d="M2336 3724 c-13 -35 -7 -54 19 -54 22 0 25 4 25 35 0 28 -4 35 -19
35 -10 0 -22 -7 -25 -16z"/>
<path d="M2426 3709 c-7 -37 -1 -49 25 -49 16 0 19 7 19 40 0 32 -4 40 -19 40
-13 0 -20 -10 -25 -31z"/>
<path d="M2630 3705 c0 -31 3 -35 25 -35 26 0 29 9 19 48 -4 13 -14 22 -25 22
-15 0 -19 -7 -19 -35z"/>
<path d="M3440 3600 c14 -27 25 -38 35 -34 19 7 19 8 0 44 -9 18 -23 30 -35
30 -20 0 -20 0 0 -40z"/>
<path d="M3318 3612 c-22 -4 -21 -1 -3 -45 11 -28 19 -34 35 -30 24 6 24 9 2
48 -11 20 -23 30 -34 27z"/>
<path d="M3178 3583 c-22 -5 -22 -5 -4 -48 11 -27 19 -32 35 -28 12 3 21 7 21
9 0 8 -29 74 -32 73 -2 -1 -11 -3 -20 -6z"/>
<path d="M3027 3562 c-16 -3 -18 -10 -12 -40 8 -45 6 -43 34 -35 20 5 22 10
17 37 -8 37 -15 44 -39 38z"/>
<path d="M2850 3526 c0 -40 11 -56 37 -56 21 0 24 4 19 23 -3 12 -6 30 -6 40
0 11 -8 17 -25 17 -20 0 -25 -5 -25 -24z"/>
<path d="M2316 3509 c-9 -47 -8 -49 24 -49 28 0 30 2 30 40 0 35 -3 40 -24 40
-18 0 -25 -7 -30 -31z"/>
<path d="M2420 3490 c0 -36 3 -40 25 -40 23 0 25 4 25 40 0 36 -2 40 -25 40
-22 0 -25 -4 -25 -40z"/>
<path d="M2582 3493 c3 -33 7 -38 31 -41 23 -3 27 0 27 22 0 40 -11 56 -37 56
-22 0 -24 -4 -21 -37z"/>
<path d="M2687 3533 c-2 -4 -2 -23 0 -40 4 -27 10 -33 30 -33 22 0 24 4 21 38
-2 29 -8 38 -25 40 -11 2 -23 0 -26 -5z"/>
<path d="M4021 3420 c0 -8 6 -26 13 -39 13 -23 13 -23 19 -2 3 13 1 19 -5 15
-6 -4 -8 2 -4 17 3 13 3 18 0 10 -5 -11 -8 -11 -15 0 -7 12 -9 11 -8 -1z"/>
<path d="M3970 3378 c0 -26 22 -78 30 -73 5 3 4 20 -2 38 -13 38 -28 58 -28
35z"/>
<path d="M3903 3333 c-9 -3 -9 -12 -2 -31 5 -15 12 -33 15 -41 3 -9 8 -11 14
-5 14 14 -11 82 -27 77z"/>
<path d="M3845 3301 c-7 -13 13 -81 24 -81 16 0 19 13 9 43 -13 40 -24 52 -33
38z"/>
<path d="M3736 3252 c-3 -5 0 -25 6 -44 8 -27 15 -34 28 -31 16 4 17 9 6 41
-13 36 -29 51 -40 34z"/>
<path d="M3667 3232 c-11 -2 -16 -10 -13 -20 2 -9 7 -27 11 -39 7 -24 46 -33
44 -10 -2 34 -25 73 -42 69z"/>
<path d="M3495 3420 c-7 -12 13 -80 23 -80 25 1 31 17 20 53 -11 36 -30 48
-43 27z"/>
<path d="M3359 3393 c-14 -3 -14 -10 -5 -43 10 -39 36 -54 51 -30 7 12 -13 81
-23 79 -4 -1 -14 -3 -23 -6z"/>
<path d="M3267 3372 c-16 -3 -18 -10 -12 -40 8 -46 9 -46 39 -38 23 6 24 8 14
39 -13 40 -18 45 -41 39z"/>
<path d="M3147 3354 c-3 -3 -4 -11 -2 -17 2 -7 6 -24 9 -38 5 -22 10 -25 32
-21 23 4 25 8 20 35 -3 16 -6 33 -6 38 0 10 -43 12 -53 3z"/>
<path d="M2974 3299 c4 -24 8 -44 9 -45 1 -1 14 0 28 3 23 4 25 8 20 41 -5 32
-10 37 -35 40 -29 4 -29 3 -22 -39z"/>
<path d="M2813 3322 c-24 -3 -28 -19 -17 -60 5 -18 13 -22 33 -20 23 3 26 7
23 38 -4 41 -10 47 -39 42z"/>
<path d="M2210 3303 c0 -10 -3 -28 -6 -40 -6 -20 -3 -23 25 -23 23 0 31 5 31
18 0 9 3 27 6 40 6 19 3 22 -25 22 -23 0 -31 -5 -31 -17z"/>
<path d="M2386 3289 c-10 -53 -8 -59 24 -59 29 0 30 2 30 45 0 41 -2 45 -24
45 -18 0 -25 -7 -30 -31z"/>
<path d="M2500 3270 c0 -38 2 -40 30 -40 28 0 30 2 30 40 0 38 -2 40 -30 40
-28 0 -30 -2 -30 -40z"/>
<path d="M2680 3274 c0 -44 1 -45 28 -42 24 3 27 7 30 46 3 41 2 42 -27 42
-30 0 -31 -1 -31 -46z"/>
<path d="M1140 3269 c-12 -35 -12 -42 1 -49 17 -11 23 -5 37 37 9 28 8 34 -7
43 -15 8 -20 3 -31 -31z"/>
<path d="M4084 3181 c19 -68 18 -67 27 -46 11 29 10 55 -2 30 -8 -18 -9 -17
-6 6 2 16 -1 26 -10 26 -7 0 -11 -7 -9 -16z"/>
<path d="M4027 3118 c6 -34 19 -55 28 -47 7 8 -15 79 -25 79 -5 0 -7 -15 -3
-32z"/>
<path d="M3978 3115 c-3 -3 -1 -24 5 -46 12 -50 31 -37 22 15 -7 34 -15 43
-27 31z"/>
<path d="M3523 3192 c-20 -13 3 -82 27 -82 21 0 24 10 14 59 -6 31 -18 38 -41
23z"/>
<path d="M3356 3123 c8 -47 14 -54 42 -47 18 5 21 11 16 33 -10 47 -13 51 -39
51 -24 0 -26 -2 -19 -37z"/>
<path d="M3246 3103 c9 -50 9 -51 40 -45 23 4 25 8 20 35 -3 16 -6 33 -6 38 0
5 -14 9 -30 9 -30 0 -31 -1 -24 -37z"/>
<path d="M3137 3123 c-10 -9 -8 -55 2 -71 4 -8 19 -12 32 -10 21 3 24 8 21 38
-2 19 -6 38 -9 43 -5 9 -37 9 -46 0z"/>
<path d="M2947 3104 c-4 -4 -7 -25 -7 -46 0 -36 2 -38 31 -38 29 0 30 1 27 43
-2 33 -7 43 -23 45 -12 2 -24 0 -28 -4z"/>
<path d="M1050 3059 c-6 -22 -8 -44 -5 -49 13 -20 33 -9 39 21 9 46 8 56 -9
63 -10 4 -17 -6 -25 -35z"/>
<path d="M2110 3055 c0 -43 1 -45 30 -45 29 0 30 2 30 45 0 43 -1 45 -30 45
-29 0 -30 -2 -30 -45z"/>
<path d="M2300 3045 c0 -43 1 -45 30 -45 26 0 30 3 30 29 0 16 3 36 6 45 5 13
-1 16 -30 16 l-36 0 0 -45z"/>
<path d="M2740 3050 c0 -39 1 -40 36 -40 36 0 36 1 30 31 -3 17 -6 35 -6 40 0
5 -13 9 -30 9 -28 0 -30 -2 -30 -40z"/>
<path d="M2427 3084 c-4 -4 -7 -25 -7 -46 0 -37 1 -38 36 -38 l35 0 -3 43 c-3
37 -6 42 -28 45 -14 2 -29 0 -33 -4z"/>
<path d="M2620 3045 c0 -43 1 -45 30 -45 29 0 30 2 30 45 0 43 -1 45 -30 45
-29 0 -30 -2 -30 -45z"/>
<path d="M3884 3028 c8 -49 12 -56 27 -41 15 15 0 83 -18 83 -13 0 -14 -8 -9
-42z"/>
<path d="M3813 2999 c3 -22 7 -43 10 -45 8 -9 36 8 32 19 -2 7 -6 24 -9 40 -4
16 -13 27 -23 27 -13 0 -15 -8 -10 -41z"/>
<path d="M3792 2970 c0 -14 2 -19 5 -12 2 6 2 18 0 25 -3 6 -5 1 -5 -13z"/>
<path d="M1165 3027 c-13 -56 -10 -72 13 -75 14 -2 22 2 22 11 0 8 3 28 6 44
5 25 2 31 -15 36 -16 4 -22 0 -26 -16z"/>
<path d="M4121 2938 c-1 -20 3 -39 8 -42 10 -6 26 63 17 72 -3 3 -6 -6 -7 -19
l-1 -24 -8 25 c-7 22 -8 21 -9 -12z"/>
<path d="M4060 2864 c0 -27 4 -43 10 -39 6 3 10 24 10 46 0 21 -4 39 -10 39
-5 0 -10 -21 -10 -46z"/>
<path d="M4041 2864 c0 -11 3 -14 6 -6 3 7 2 16 -1 19 -3 4 -6 -2 -5 -13z"/>
<path d="M3983 2863 c-15 -5 -17 -79 -3 -88 14 -9 22 16 18 57 -2 23 -7 33
-15 31z"/>
<path d="M3952 2800 c0 -19 2 -27 5 -17 2 9 2 25 0 35 -3 9 -5 1 -5 -18z"/>
<path d="M3873 2813 c-8 -3 -13 -23 -13 -50 0 -37 3 -44 16 -39 9 3 18 6 20 6
6 0 3 53 -4 71 -4 9 -13 14 -19 12z"/>
<path d="M3793 2783 c-8 -3 -13 -23 -13 -50 0 -37 3 -44 16 -39 9 3 18 6 20 6
2 0 4 20 4 45 0 44 -3 48 -27 38z"/>
<path d="M3689 2993 c-12 -3 -14 -12 -10 -41 5 -29 11 -38 30 -40 21 -3 23 -1
18 20 -4 12 -7 33 -7 46 0 22 -2 23 -31 15z"/>
<path d="M1406 2955 c-14 -37 -7 -73 16 -78 12 -4 23 -5 24 -4 1 1 4 22 6 47
3 40 0 45 -18 48 -13 2 -24 -4 -28 -13z"/>
<path d="M3533 2952 c-20 -13 -5 -82 18 -82 25 0 31 14 23 55 -6 35 -17 42
-41 27z"/>
<path d="M1504 2921 c-3 -14 -7 -34 -8 -43 -3 -11 5 -19 21 -23 31 -7 31 -8
39 42 6 38 4 41 -20 45 -22 4 -27 1 -32 -21z"/>
<path d="M3434 2933 c-18 -3 -20 -9 -15 -46 6 -38 9 -42 31 -39 14 2 26 5 28
7 5 5 -11 85 -17 84 -3 -1 -15 -4 -27 -6z"/>
<path d="M3322 2913 c-20 -4 -21 -8 -16 -46 4 -23 7 -43 8 -44 1 -1 14 1 29 4
23 5 28 10 23 27 -3 11 -6 31 -6 44 0 12 -3 21 -7 21 -5 -1 -18 -4 -31 -6z"/>
<path d="M1786 2884 c-3 -9 -6 -28 -6 -44 0 -22 6 -29 26 -34 32 -8 30 -10 37
41 4 36 2 42 -17 47 -31 8 -33 8 -40 -10z"/>
<path d="M1977 2873 c-4 -3 -7 -23 -7 -44 0 -31 4 -38 26 -43 32 -8 30 -10 37
41 4 36 2 42 -17 47 -27 7 -31 7 -39 -1z"/>
<path d="M2960 2824 c0 -43 2 -46 23 -40 12 3 27 6 32 6 6 0 9 17 7 40 -4 37
-7 40 -33 40 -28 0 -29 -2 -29 -46z"/>
<path d="M2097 2863 c-4 -3 -7 -24 -7 -45 0 -27 4 -38 15 -39 8 -1 21 -2 28
-3 18 -2 27 14 27 50 0 24 -5 33 -22 38 -29 7 -33 7 -41 -1z"/>
<path d="M2830 2815 c0 -43 1 -45 29 -45 37 0 45 12 37 56 -6 30 -11 34 -36
34 -29 0 -30 -2 -30 -45z"/>
<path d="M1040 2806 c0 -45 22 -70 34 -40 11 30 6 72 -10 78 -24 9 -24 9 -24
-38z"/>
<path d="M2297 2854 c-4 -4 -7 -25 -7 -46 0 -37 1 -38 36 -38 l35 0 -3 43 c-3
37 -6 42 -28 45 -14 2 -29 0 -33 -4z"/>
<path d="M2420 2805 c0 -43 1 -45 29 -45 24 0 29 5 35 31 11 54 8 59 -29 59
-35 0 -35 0 -35 -45z"/>
<path d="M2624 2819 c3 -17 6 -35 6 -40 0 -5 14 -9 30 -9 28 0 30 2 30 40 0
39 -1 40 -36 40 -36 0 -36 -1 -30 -31z"/>
<path d="M1162 2753 c2 -35 7 -49 19 -51 13 -2 18 7 21 40 4 42 -4 58 -30 58
-9 0 -12 -13 -10 -47z"/>
<path d="M4142 2710 c0 -19 2 -27 5 -17 2 9 2 25 0 35 -3 9 -5 1 -5 -18z"/>
<path d="M4108 2704 c-5 -4 -8 -26 -8 -48 1 -33 3 -38 11 -23 11 19 8 83 -3
71z"/>
<path d="M3635 2729 c-4 -6 -4 -26 0 -45 4 -26 11 -34 23 -32 12 2 18 15 20
46 3 36 0 42 -17 42 -11 0 -23 -5 -26 -11z"/>
<path d="M1414 2694 c-8 -46 0 -64 31 -64 23 0 25 4 25 44 0 39 -3 44 -25 48
-21 5 -25 1 -31 -28z"/>
<path d="M3543 2713 c-8 -3 -13 -23 -13 -47 0 -41 1 -43 25 -38 22 4 25 9 25
48 0 43 -7 50 -37 37z"/>
<path d="M1520 2656 c0 -38 3 -44 24 -48 21 -4 24 -1 29 36 7 49 3 56 -29 56
-22 0 -24 -4 -24 -44z"/>
<path d="M1630 2645 c0 -19 0 -37 0 -40 0 -3 10 -8 21 -11 27 -7 39 10 39 54
0 29 -3 32 -30 32 -28 0 -30 -3 -30 -35z"/>
<path d="M3350 2635 c0 -46 8 -53 44 -39 11 4 16 19 16 45 0 37 -2 39 -30 39
-29 0 -30 -2 -30 -45z"/>
<path d="M1813 2644 c-2 -6 -3 -27 -1 -46 2 -28 7 -34 31 -36 24 -3 27 0 27
27 0 16 3 36 6 44 4 10 -4 16 -26 19 -20 3 -34 0 -37 -8z"/>
<path d="M3178 2652 c-26 -3 -28 -7 -28 -49 l0 -45 32 6 c17 3 33 8 35 9 1 2
-1 21 -5 43 -6 35 -10 39 -34 36z"/>
<path d="M3020 2595 c0 -45 0 -45 35 -45 35 0 35 0 35 45 0 45 0 45 -35 45
-35 0 -35 0 -35 -45z"/>
<path d="M2010 2585 c0 -43 1 -45 30 -45 29 0 30 2 30 45 0 43 -1 45 -30 45
-29 0 -30 -2 -30 -45z"/>
<path d="M2890 2585 c0 -45 0 -45 35 -45 35 0 35 0 35 45 0 45 0 45 -35 45
-35 0 -35 0 -35 -45z"/>
<path d="M3974 2612 c-17 -11 -25 -92 -9 -86 7 3 15 24 17 47 5 49 6 48 -8 39z"/>
<path d="M2134 2616 c-3 -8 -4 -29 -2 -48 3 -29 7 -33 36 -36 32 -3 32 -3 32
41 0 38 -3 46 -22 51 -33 8 -38 8 -44 -8z"/>
<path d="M2340 2576 c0 -46 0 -46 36 -46 l35 0 -3 43 c-3 39 -5 42 -35 45 -33
3 -33 3 -33 -42z"/>
<path d="M2470 2570 c0 -39 1 -40 35 -40 34 0 35 1 35 40 0 39 -1 40 -35 40
-34 0 -35 -1 -35 -40z"/>
<path d="M2680 2575 c0 -45 0 -45 35 -45 35 0 35 0 35 45 0 45 0 45 -35 45
-35 0 -35 0 -35 -45z"/>
<path d="M4175 2530 c-3 -6 1 -7 9 -4 18 7 21 14 7 14 -6 0 -13 -4 -16 -10z"/>
<path d="M4295 2447 c-38 -39 -105 -92 -147 -119 -43 -28 -78 -54 -78 -59 0
-12 26 2 110 57 74 49 200 163 200 182 0 20 -12 12 -85 -61z"/>
<path d="M4165 2429 c-38 -23 -91 -57 -117 -76 -27 -19 -48 -31 -48 -26 0 4
-5 1 -10 -7 -5 -8 -15 -15 -21 -15 -7 0 -14 -6 -17 -13 -9 -29 229 109 272
157 26 28 22 27 -59 -20z"/>
<path d="M3998 2434 c-16 -8 -28 -17 -28 -19 0 -10 16 -4 40 15 30 23 25 25
-12 4z"/>
<path d="M3764 2258 l-19 -23 23 19 c12 11 22 21 22 23 0 8 -8 2 -26 -19z"/>
<path d="M3480 2259 c0 -5 5 -7 10 -4 6 3 10 8 10 11 0 2 -4 4 -10 4 -5 0 -10
-5 -10 -11z"/>
<path d="M3564 2254 c-7 -3 -10 -13 -7 -23 3 -10 0 -22 -6 -25 -21 -13 -12
-33 13 -29 20 4 25 12 28 44 3 38 -2 44 -28 33z"/>
<path d="M3890 2214 c-82 -27 -104 -41 -51 -30 65 12 107 26 126 40 27 20 14
19 -75 -10z"/>
<path d="M3377 2213 c-3 -5 -8 -23 -12 -41 -7 -32 -6 -33 22 -30 25 3 28 8 31
41 3 31 0 37 -17 37 -11 0 -22 -3 -24 -7z"/>
<path d="M4100 2210 l-25 -8 27 -1 c15 -1 30 4 33 9 7 11 0 11 -35 0z"/>
<path d="M3045 2200 c-8 -13 5 -13 25 0 13 8 13 10 -2 10 -9 0 -20 -4 -23 -10z"/>
<path d="M3963 2170 c-6 -16 -10 -30 -7 -30 2 0 10 14 19 30 9 17 12 30 7 30
-4 0 -13 -13 -19 -30z"/>
<path d="M3625 2128 l-60 -63 63 60 c58 55 67 65 59 65 -1 0 -29 -28 -62 -62z"/>
<path d="M4167 2163 c9 -16 18 -30 20 -32 2 -2 3 10 3 27 0 25 -4 32 -20 32
-20 0 -20 -1 -3 -27z"/>
<path d="M3912 2143 c-9 -31 -9 -34 2 -22 18 18 30 59 18 59 -5 0 -14 -17 -20
-37z"/>
<path d="M2995 2159 c-11 -17 1 -21 15 -4 8 9 8 15 2 15 -6 0 -14 -5 -17 -11z"/>
<path d="M3804 2159 c-23 -6 -51 -21 -65 -36 -13 -15 -16 -21 -6 -14 14 11 17
11 17 0 0 -8 9 -4 23 9 13 12 26 19 30 16 4 -4 13 -2 20 4 8 7 16 9 19 6 3 -2
8 2 11 11 4 8 3 15 -1 14 -4 -1 -25 -5 -48 -10z"/>
<path d="M3873 2152 c-14 -9 -36 -63 -28 -70 8 -8 21 9 33 46 6 17 10 32 9 32
-1 0 -7 -4 -14 -8z"/>
<path d="M4064 2139 l-19 -22 35 18 c45 23 47 25 23 25 -11 0 -28 -10 -39 -21z"/>
<path d="M2350 2125 c-13 -14 -19 -25 -13 -25 5 0 20 11 33 25 13 14 19 25 13
25 -5 0 -20 -11 -33 -25z"/>
<path d="M2547 2143 c-22 -21 11 -73 46 -73 13 0 17 9 17 40 0 37 -2 40 -28
40 -16 0 -32 -3 -35 -7z"/>
<path d="M2676 2134 c-3 -9 -6 -27 -6 -40 0 -22 4 -25 33 -22 29 3 32 6 35 41
3 35 2 37 -26 37 -18 0 -32 -6 -36 -16z"/>
<path d="M3113 2138 c-33 -16 -29 -38 6 -38 23 0 30 5 33 25 6 27 -4 30 -39
13z"/>
<path d="M4464 2095 c-32 -30 -54 -54 -49 -54 6 0 35 24 65 54 70 71 61 71
-16 0z"/>
<path d="M4014 2127 c-38 -22 -95 -70 -90 -75 3 -3 13 1 22 9 10 8 26 14 37
14 13 0 28 13 40 33 21 36 21 36 -9 19z"/>
<path d="M4236 2117 c-4 -16 -27 -51 -53 -78 -28 -30 -40 -49 -31 -49 9 0 32
18 52 40 35 39 52 78 44 102 -3 7 -8 0 -12 -15z"/>
<path d="M2861 2101 c-13 -10 -22 -24 -20 -30 3 -9 11 -7 28 6 32 26 24 48 -8
24z"/>
<path d="M2965 2109 c-4 -6 -5 -12 -2 -15 2 -3 7 2 10 11 7 17 1 20 -8 4z"/>
<path d="M3786 2088 c-3 -19 -13 -43 -22 -54 -16 -19 -16 -17 0 34 5 16 3 22
-7 22 -9 0 -17 -14 -21 -35 -4 -19 -12 -37 -18 -41 -8 -5 -9 2 -5 22 9 48 -8
60 -22 15 -15 -50 -35 -71 -69 -71 -21 0 -36 -12 -65 -52 -37 -50 -43 -73 -12
-48 12 10 15 10 15 -1 0 -8 5 -7 13 5 7 10 28 19 47 21 43 4 107 35 182 87 72
51 121 116 53 72 -13 -9 -29 -13 -35 -9 -5 3 -10 1 -10 -4 0 -6 -4 -11 -10
-11 -6 0 -6 9 0 26 6 15 6 32 1 41 -6 12 -10 8 -15 -19z"/>
<path d="M3282 2074 l-37 -36 43 32 c23 17 42 34 42 36 0 10 -13 1 -48 -32z"/>
<path d="M4096 2053 c-30 -22 -35 -29 -21 -31 10 -2 31 10 49 27 38 38 24 40
-28 4z"/>
<path d="M2412 2055 c-48 -26 -45 -35 3 -14 28 12 52 23 54 25 11 10 -37 1
-57 -11z"/>
<path d="M2767 2040 c-21 -15 -34 -31 -28 -34 10 -7 81 33 81 46 0 18 -19 14
-53 -12z"/>
<path d="M2828 2033 c-44 -29 -55 -40 -46 -50 20 -24 43 -13 76 37 17 28 31
50 30 50 -2 0 -29 -17 -60 -37z"/>
<path d="M2897 2013 c-21 -30 -36 -57 -34 -59 2 -3 23 23 46 56 23 33 39 60
34 60 -4 -1 -25 -26 -46 -57z"/>
<path d="M3645 2030 c-28 -30 -24 -42 7 -17 13 10 32 47 25 47 -2 0 -16 -13
-32 -30z"/>
<path d="M2230 2014 c-52 -41 -73 -61 -50 -48 45 26 100 68 100 75 0 13 0 13
-50 -27z"/>
<path d="M2379 2003 l-74 -38 70 -3 c67 -3 71 -2 98 28 15 16 27 35 27 40 0
20 -49 9 -121 -27z"/>
<path d="M4533 2018 c-17 -6 -46 -26 -65 -45 l-33 -35 36 24 c21 14 51 31 68
38 17 7 31 16 31 21 0 5 -1 9 -2 8 -2 -1 -17 -6 -35 -11z"/>
<path d="M3890 1990 c-6 -11 -8 -20 -6 -20 3 0 10 9 16 20 6 11 8 20 6 20 -3
0 -10 -9 -16 -20z"/>
<path d="M3989 1963 c-20 -22 -21 -24 -4 -15 39 22 47 29 38 35 -6 4 -21 -5
-34 -20z"/>
<path d="M4350 1980 c-8 -5 -12 -12 -9 -15 4 -3 12 1 19 10 14 17 11 19 -10 5z"/>
<path d="M2650 1970 c-13 -8 -13 -10 2 -10 9 0 20 5 23 10 8 13 -5 13 -25 0z"/>
<path d="M3050 1954 c0 -14 3 -15 18 -3 9 7 19 15 21 16 2 2 -5 3 -17 3 -14 0
-22 -6 -22 -16z"/>
<path d="M3269 1944 c-21 -23 -22 -26 -5 -23 10 2 22 14 27 27 11 28 8 28 -22
-4z"/>
<path d="M2050 1940 c0 -11 4 -20 8 -20 5 0 17 9 27 20 18 20 17 20 -8 20 -20
0 -27 -5 -27 -20z"/>
<path d="M2615 1950 c-3 -5 -1 -10 4 -10 6 0 11 5 11 10 0 6 -2 10 -4 10 -3 0
-8 -4 -11 -10z"/>
<path d="M4050 1931 c-14 -10 -52 -33 -84 -50 -42 -22 -52 -31 -36 -31 26 0
140 61 160 85 18 22 -8 20 -40 -4z"/>
<path d="M2657 1933 c-2 -5 -7 -21 -11 -36 -6 -27 -5 -28 26 -25 29 3 33 7 36
36 3 28 0 32 -22 32 -14 0 -27 -3 -29 -7z"/>
<path d="M2730 1914 c0 -14 4 -23 10 -19 6 3 10 15 10 26 0 10 -4 19 -10 19
-5 0 -10 -12 -10 -26z"/>
<path d="M2950 1930 c-12 -8 -11 -10 8 -10 12 0 22 5 22 10 0 13 -11 13 -30 0z"/>
<path d="M3400 1914 c-19 -13 -63 -39 -97 -57 -58 -30 -78 -47 -53 -47 6 0 10
4 10 9 0 5 15 11 32 15 45 9 135 65 141 88 3 10 4 18 4 18 -1 -1 -18 -12 -37
-26z"/>
<path d="M3800 1925 c-7 -9 -10 -18 -7 -21 3 -3 10 4 17 15 13 25 8 27 -10 6z"/>
<path d="M4289 1913 c-13 -16 -12 -17 4 -4 16 13 21 21 13 21 -2 0 -10 -8 -17
-17z"/>
<path d="M2255 1900 c-8 -13 25 -13 45 0 12 8 9 10 -12 10 -15 0 -30 -4 -33
-10z"/>
<path d="M2338 1903 c6 -2 18 -2 25 0 6 3 1 5 -13 5 -14 0 -19 -2 -12 -5z"/>
<path d="M2217 1893 c-4 -3 -7 -11 -7 -17 0 -6 5 -5 12 2 6 6 9 14 7 17 -3 3
-9 2 -12 -2z"/>
<path d="M3737 1893 c-4 -3 -7 -11 -7 -17 0 -6 5 -5 12 2 6 6 9 14 7 17 -3 3
-9 2 -12 -2z"/>
<path d="M2278 1873 c6 -2 18 -2 25 0 6 3 1 5 -13 5 -14 0 -19 -2 -12 -5z"/>
<path d="M2970 1870 c-34 -7 -34 -7 13 -9 26 0 47 4 47 9 0 11 -8 11 -60 0z"/>
<path d="M3048 1873 c7 -3 16 -2 19 1 4 3 -2 6 -13 5 -11 0 -14 -3 -6 -6z"/>
<path d="M3695 1870 c-3 -5 -2 -10 4 -10 5 0 13 5 16 10 3 6 2 10 -4 10 -5 0
-13 -4 -16 -10z"/>
<path d="M2177 1863 c-4 -3 -7 -11 -7 -17 0 -6 5 -5 12 2 6 6 9 14 7 17 -3 3
-9 2 -12 -2z"/>
<path d="M2014 1828 l-29 -33 33 29 c30 28 37 36 29 36 -2 0 -16 -15 -33 -32z"/>
<path d="M2210 1850 c-12 -8 -9 -10 13 -10 15 0 27 5 27 10 0 13 -20 13 -40 0z"/>
<path d="M3426 1818 c-11 -43 -4 -48 29 -24 16 12 17 16 6 30 -18 22 -28 20
-35 -6z"/>
<path d="M3610 1830 c0 -5 4 -10 9 -10 6 0 13 5 16 10 3 6 -1 10 -9 10 -9 0
-16 -4 -16 -10z"/>
<path d="M3283 1805 c-11 -8 -23 -24 -26 -36 -5 -18 -3 -20 21 -14 33 8 29 4
37 38 8 30 -1 34 -32 12z"/>
<path d="M2260 1794 l-55 -14 48 5 c27 3 56 9 65 15 21 12 12 11 -58 -6z"/>
<path d="M3745 1799 c-10 -15 3 -25 16 -12 7 7 7 13 1 17 -6 3 -14 1 -17 -5z"/>
<path d="M1870 1770 c0 -11 4 -20 8 -20 5 0 17 9 27 20 18 20 17 20 -8 20 -20
0 -27 -5 -27 -20z"/>
<path d="M3690 1769 c0 -5 -5 -7 -12 -3 -6 4 -8 3 -4 -4 3 -6 2 -13 -4 -17 -5
-3 -10 -11 -10 -17 0 -14 28 9 41 34 6 12 6 18 -1 18 -5 0 -10 -5 -10 -11z"/>
<path d="M2090 1753 c0 -25 12 -39 38 -47 20 -7 22 -4 22 28 0 33 -2 36 -30
36 -22 0 -30 -5 -30 -17z"/>
<path d="M2280 1731 c0 -28 3 -31 31 -31 27 0 30 3 27 28 -2 21 -9 28 -30 30
-25 3 -28 0 -28 -27z"/>
<path d="M2590 1735 c0 -14 -1 -28 -2 -32 -2 -5 8 -10 21 -11 26 -4 41 12 41
46 0 18 -6 22 -30 22 -25 0 -30 -4 -30 -25z"/>
<path d="M3576 1710 c-21 -37 -13 -38 20 -3 19 20 23 22 18 7 -7 -17 -6 -17 9
-5 23 18 21 26 -6 29 -16 1 -28 -8 -41 -28z"/>
<path d="M2025 1720 c-3 -5 -1 -10 4 -10 6 0 11 5 11 10 0 6 -2 10 -4 10 -3 0
-8 -4 -11 -10z"/>
<path d="M1865 1673 l-28 -38 36 34 c39 37 42 41 28 41 -5 0 -21 -17 -36 -37z"/>
<path d="M1550 1688 c0 -5 -5 -6 -11 -2 -7 4 -7 -2 1 -17 18 -35 23 -38 16 -9
-6 23 -6 23 5 5 7 -11 12 -21 13 -21 1 -1 11 -5 24 -9 23 -7 23 -6 8 23 -14
28 -56 51 -56 30z"/>
<path d="M3410 1683 c-17 -6 -40 -32 -40 -45 0 -20 31 -5 45 22 9 17 14 30 13
29 -2 0 -10 -3 -18 -6z"/>
<path d="M1694 1643 c14 -28 43 -49 53 -40 6 6 -19 57 -28 57 -4 0 -15 3 -24
6 -16 6 -16 5 -1 -23z"/>
<path d="M3300 1650 c-25 -25 -26 -40 -2 -40 15 0 42 36 42 55 0 12 -22 3 -40
-15z"/>
<path d="M1809 1613 c-13 -16 -12 -17 4 -4 16 13 21 21 13 21 -2 0 -10 -8 -17
-17z"/>
<path d="M1901 1596 c-9 -11 -7 -15 12 -18 20 -4 23 -1 19 14 -5 22 -15 23
-31 4z"/>
<path d="M3853 2563 c-18 -7 -17 -83 1 -83 14 0 26 29 26 68 0 22 -4 25 -27
15z"/>
<path d="M3669 2503 c-11 -2 -19 -19 -22 -46 -3 -23 -5 -43 -3 -44 1 -1 12 0
24 4 18 4 22 12 22 49 0 24 -1 43 -2 43 -2 -1 -10 -3 -19 -6z"/>
<path d="M3493 2463 c-8 -2 -13 -22 -13 -45 0 -35 2 -39 23 -36 18 2 23 10 25
46 3 42 -3 48 -35 35z"/>
<path d="M3248 2422 c-26 -3 -28 -7 -28 -48 0 -43 1 -44 28 -38 35 9 34 6 30
50 -3 36 -5 39 -30 36z"/>
<path d="M1800 2376 c0 -37 4 -45 23 -50 36 -9 37 -8 37 38 0 31 -5 46 -16 50
-36 14 -44 7 -44 -38z"/>
<path d="M3097 2403 c-4 -3 -7 -24 -7 -45 0 -36 2 -38 30 -38 29 0 30 2 30 45
0 40 -2 45 -23 45 -13 0 -27 -3 -30 -7z"/>
<path d="M2000 2355 c0 -43 1 -45 30 -45 28 0 30 2 30 39 0 32 -4 40 -22 45
-37 9 -38 8 -38 -39z"/>
<path d="M2120 2345 c0 -45 0 -45 35 -45 34 0 35 1 35 39 0 32 -4 40 -22 45
-44 11 -48 8 -48 -39z"/>
<path d="M2828 2383 c-25 -4 -28 -8 -28 -44 0 -38 1 -39 35 -39 35 0 35 0 35
45 0 25 -3 44 -7 44 -5 -1 -20 -4 -35 -6z"/>
<path d="M2330 2335 c0 -43 1 -45 30 -45 29 0 30 2 30 45 0 43 -1 45 -30 45
-29 0 -30 -2 -30 -45z"/>
<path d="M2540 2335 c0 -43 1 -45 30 -45 29 0 30 2 30 45 0 43 -1 45 -30 45
-29 0 -30 -2 -30 -45z"/>
<path d="M2670 2334 c0 -45 0 -45 33 -42 30 3 32 6 35 46 l3 42 -35 0 c-36 0
-36 0 -36 -46z"/>
<path d="M1740 2161 c0 -32 4 -40 23 -45 35 -9 37 -8 37 33 0 32 -4 40 -22 45
-36 9 -38 8 -38 -33z"/>
<path d="M1930 2141 c0 -32 4 -40 23 -45 39 -10 43 -7 39 33 -3 30 -9 41 -25
45 -35 9 -37 8 -37 -33z"/>
<path d="M2130 2120 c0 -38 2 -40 30 -40 28 0 30 2 30 40 0 38 -2 40 -30 40
-28 0 -30 -2 -30 -40z"/>
<path d="M1284 2077 c3 -12 6 -27 6 -34 0 -14 39 -38 47 -29 11 11 -19 74 -38
79 -18 5 -20 2 -15 -16z"/>
<path d="M1524 1998 c7 -37 5 -34 34 -42 17 -6 22 -3 22 11 0 43 -12 63 -37
63 -23 0 -25 -3 -19 -32z"/>
<path d="M1688 1969 c3 -20 13 -34 28 -41 31 -15 38 -7 30 37 -6 30 -11 35
-35 35 -25 0 -27 -3 -23 -31z"/>
<path d="M1865 1949 c10 -46 12 -49 41 -49 18 0 24 5 24 23 0 31 -11 44 -44
53 -28 7 -28 6 -21 -27z"/>
<path d="M1320 1905 c0 -16 31 -63 45 -68 18 -7 19 6 4 36 -15 29 -49 50 -49
32z"/>
<path d="M1463 1838 c8 -21 21 -34 35 -36 21 -3 21 -2 8 30 -9 20 -22 34 -35
36 -21 3 -21 2 -8 -30z"/>
<path d="M1540 1845 c0 -22 34 -65 50 -65 17 0 18 3 9 27 -6 15 -16 31 -22 35
-14 9 -37 10 -37 3z"/>
<path d="M1700 1811 c0 -32 21 -61 45 -61 23 0 24 2 14 27 -6 15 -16 31 -22
35 -17 11 -37 10 -37 -1z"/>
<path d="M3086 1768 c-9 -35 -8 -38 18 -38 18 0 27 8 35 30 10 29 9 30 -18 30
-21 0 -30 -6 -35 -22z"/>
<path d="M2900 1756 c0 -8 -3 -21 -6 -30 -5 -13 1 -16 25 -16 20 0 31 5 31 14
0 8 3 21 6 30 5 13 -1 16 -25 16 -20 0 -31 -5 -31 -14z"/>
<path d="M2778 1730 c-4 -27 -2 -30 23 -30 26 0 39 15 39 46 0 9 -11 14 -29
14 -24 0 -29 -5 -33 -30z"/>
<path d="M2470 1720 c0 -27 3 -30 30 -30 27 0 30 3 30 30 0 27 -3 30 -30 30
-27 0 -30 -3 -30 -30z"/>
<path d="M3539 1593 l-24 -28 28 24 c25 23 32 31 24 31 -2 0 -14 -12 -28 -27z"/>
<path d="M3479 1563 c-13 -16 -12 -17 4 -4 16 13 21 21 13 21 -2 0 -10 -8 -17
-17z"/>
<path d="M3407 1552 c-20 -22 -22 -33 -4 -26 15 6 40 44 29 44 -5 0 -16 -8
-25 -18z"/>
<path d="M3446 1553 c-6 -14 -5 -15 5 -6 7 7 10 15 7 18 -3 3 -9 -2 -12 -12z"/>
<path d="M3345 1540 c-4 -6 -10 -8 -15 -5 -13 8 -20 -9 -10 -25 7 -12 12 -11
29 4 12 11 21 23 21 28 0 11 -18 10 -25 -2z"/>
<path d="M3206 1495 c-9 -14 -13 -25 -8 -25 13 0 52 30 52 41 0 18 -28 8 -44
-16z"/>
<path d="M3041 1621 c-13 -4 -28 -16 -32 -29 -7 -19 -5 -22 17 -22 17 0 27 8
35 26 11 32 11 32 -20 25z"/>
<path d="M2845 1595 c-3 -8 -7 -22 -10 -30 -3 -11 4 -15 25 -15 19 0 30 5 30
14 0 8 3 21 6 30 5 12 0 16 -20 16 -15 0 -29 -7 -31 -15z"/>
<path d="M2090 1600 c0 -24 22 -50 41 -50 16 0 20 5 17 28 -2 21 -9 28 -30 30
-16 2 -28 -2 -28 -8z"/>
<path d="M2198 1575 c3 -19 10 -25 32 -25 24 0 27 3 22 25 -3 19 -10 25 -32
25 -24 0 -27 -3 -22 -25z"/>
<path d="M2430 1565 c0 -21 5 -25 30 -25 25 0 30 4 30 25 0 21 -5 25 -30 25
-25 0 -30 -4 -30 -25z"/>
<path d="M2600 1565 c0 -21 5 -25 30 -25 25 0 30 4 30 25 0 21 -5 25 -30 25
-25 0 -30 -4 -30 -25z"/>
<path d="M3070 1481 c-13 -26 -13 -31 3 -31 14 0 47 31 47 43 0 16 -40 5 -50
-12z"/>
<path d="M2926 1464 c-20 -19 -20 -34 -2 -34 16 0 46 26 46 41 0 14 -27 11
-44 -7z"/>
<path d="M2100 1451 c13 -26 53 -29 48 -3 -2 10 -14 18 -31 20 -26 3 -28 2
-17 -17z"/>
<path d="M2790 1463 c-35 -14 -39 -43 -5 -43 14 0 25 4 25 9 0 5 3 16 6 25 6
16 0 19 -26 9z"/>
<path d="M2300 1445 c0 -12 28 -35 44 -35 3 0 6 11 6 25 0 20 -5 25 -25 25
-15 0 -25 -6 -25 -15z"/>
<path d="M2460 1430 c0 -15 7 -20 25 -20 18 0 25 5 25 20 0 15 -7 20 -25 20
-18 0 -25 -5 -25 -20z"/>
<path d="M2610 1434 c0 -21 4 -25 23 -22 14 2 23 11 25 26 3 18 -1 22 -22 22
-21 0 -26 -5 -26 -26z"/>
<path d="M1810 1405 c0 -2 6 -8 13 -14 10 -8 14 -7 14 2 0 8 -6 14 -14 14 -7
0 -13 -1 -13 -2z"/>
<path d="M1920 1386 c0 -2 8 -10 18 -17 15 -13 16 -12 3 4 -13 16 -21 21 -21
13z"/>
<path d="M2783 1349 c-13 -5 -23 -13 -23 -19 0 -17 37 -11 44 6 8 22 6 23 -21
13z"/>
<path d="M2276 1335 c4 -8 15 -15 25 -15 10 0 19 7 19 15 0 9 -9 15 -25 15
-18 0 -23 -4 -19 -15z"/>
<path d="M2362 1333 c5 -26 38 -29 38 -4 0 15 -6 21 -21 21 -14 0 -19 -5 -17
-17z"/>
<path d="M2490 1325 c0 -9 9 -15 25 -15 16 0 25 6 25 15 0 9 -9 15 -25 15 -16
0 -25 -6 -25 -15z"/>
<path d="M2630 1331 c0 -14 5 -18 20 -14 11 3 20 12 20 19 0 8 -9 14 -20 14
-13 0 -20 -7 -20 -19z"/>
<path d="M2385 1250 c3 -5 13 -10 21 -10 8 0 14 5 14 10 0 6 -9 10 -21 10 -11
0 -17 -4 -14 -10z"/>
<path d="M2450 1250 c0 -5 9 -10 20 -10 11 0 20 5 20 10 0 6 -9 10 -20 10 -11
0 -20 -4 -20 -10z"/>
<path d="M2565 1250 c-3 -5 3 -10 14 -10 12 0 21 5 21 10 0 6 -6 10 -14 10 -8
0 -18 -4 -21 -10z"/>
</g>
</svg>
